%TF.GenerationSoftware,KiCad,Pcbnew,(5.1.8)-1*%
%TF.CreationDate,2021-11-16T13:30:18-08:00*%
%TF.ProjectId,ISPwPower,49535077-506f-4776-9572-2e6b69636164,rev?*%
%TF.SameCoordinates,Original*%
%TF.FileFunction,Legend,Bot*%
%TF.FilePolarity,Positive*%
%FSLAX46Y46*%
G04 Gerber Fmt 4.6, Leading zero omitted, Abs format (unit mm)*
G04 Created by KiCad (PCBNEW (5.1.8)-1) date 2021-11-16 13:30:18*
%MOMM*%
%LPD*%
G01*
G04 APERTURE LIST*
%ADD10C,0.150000*%
%ADD11C,0.010000*%
%ADD12C,0.120000*%
G04 APERTURE END LIST*
D10*
X161678571Y-93924380D02*
X161678571Y-92924380D01*
X161250000Y-93876761D02*
X161107142Y-93924380D01*
X160869047Y-93924380D01*
X160773809Y-93876761D01*
X160726190Y-93829142D01*
X160678571Y-93733904D01*
X160678571Y-93638666D01*
X160726190Y-93543428D01*
X160773809Y-93495809D01*
X160869047Y-93448190D01*
X161059523Y-93400571D01*
X161154761Y-93352952D01*
X161202380Y-93305333D01*
X161250000Y-93210095D01*
X161250000Y-93114857D01*
X161202380Y-93019619D01*
X161154761Y-92972000D01*
X161059523Y-92924380D01*
X160821428Y-92924380D01*
X160678571Y-92972000D01*
X160250000Y-93924380D02*
X160250000Y-92924380D01*
X159869047Y-92924380D01*
X159773809Y-92972000D01*
X159726190Y-93019619D01*
X159678571Y-93114857D01*
X159678571Y-93257714D01*
X159726190Y-93352952D01*
X159773809Y-93400571D01*
X159869047Y-93448190D01*
X160250000Y-93448190D01*
X158488095Y-93924380D02*
X158488095Y-92924380D01*
X158107142Y-92924380D01*
X158011904Y-92972000D01*
X157964285Y-93019619D01*
X157916666Y-93114857D01*
X157916666Y-93257714D01*
X157964285Y-93352952D01*
X158011904Y-93400571D01*
X158107142Y-93448190D01*
X158488095Y-93448190D01*
X157583333Y-92924380D02*
X157345238Y-93924380D01*
X157154761Y-93210095D01*
X156964285Y-93924380D01*
X156726190Y-92924380D01*
X155773809Y-93924380D02*
X156107142Y-93448190D01*
X156345238Y-93924380D02*
X156345238Y-92924380D01*
X155964285Y-92924380D01*
X155869047Y-92972000D01*
X155821428Y-93019619D01*
X155773809Y-93114857D01*
X155773809Y-93257714D01*
X155821428Y-93352952D01*
X155869047Y-93400571D01*
X155964285Y-93448190D01*
X156345238Y-93448190D01*
D11*
%TO.C,G\u002A\u002A\u002A*%
G36*
X163837022Y-104092940D02*
G01*
X163830334Y-104121859D01*
X163822421Y-104164408D01*
X163815464Y-104207749D01*
X163807081Y-104267973D01*
X163802941Y-104314388D01*
X163802965Y-104355870D01*
X163807076Y-104401296D01*
X163813387Y-104447318D01*
X163822498Y-104508880D01*
X163829019Y-104550666D01*
X163833695Y-104575746D01*
X163837270Y-104587192D01*
X163840491Y-104588075D01*
X163844102Y-104581468D01*
X163845270Y-104578727D01*
X163849818Y-104560332D01*
X163856131Y-104524893D01*
X163863219Y-104478288D01*
X163867513Y-104446792D01*
X163874258Y-104386716D01*
X163876636Y-104336404D01*
X163874567Y-104285896D01*
X163867973Y-104225228D01*
X163865597Y-104207223D01*
X163858177Y-104156806D01*
X163851017Y-104116129D01*
X163845012Y-104089839D01*
X163841526Y-104082272D01*
X163837022Y-104092940D01*
G37*
X163837022Y-104092940D02*
X163830334Y-104121859D01*
X163822421Y-104164408D01*
X163815464Y-104207749D01*
X163807081Y-104267973D01*
X163802941Y-104314388D01*
X163802965Y-104355870D01*
X163807076Y-104401296D01*
X163813387Y-104447318D01*
X163822498Y-104508880D01*
X163829019Y-104550666D01*
X163833695Y-104575746D01*
X163837270Y-104587192D01*
X163840491Y-104588075D01*
X163844102Y-104581468D01*
X163845270Y-104578727D01*
X163849818Y-104560332D01*
X163856131Y-104524893D01*
X163863219Y-104478288D01*
X163867513Y-104446792D01*
X163874258Y-104386716D01*
X163876636Y-104336404D01*
X163874567Y-104285896D01*
X163867973Y-104225228D01*
X163865597Y-104207223D01*
X163858177Y-104156806D01*
X163851017Y-104116129D01*
X163845012Y-104089839D01*
X163841526Y-104082272D01*
X163837022Y-104092940D01*
G36*
X163501644Y-104189879D02*
G01*
X163510557Y-104218918D01*
X163525084Y-104260167D01*
X163540173Y-104300002D01*
X163571571Y-104373140D01*
X163605737Y-104434929D01*
X163649223Y-104496799D01*
X163663576Y-104515206D01*
X163695435Y-104554983D01*
X163721737Y-104587019D01*
X163739400Y-104607612D01*
X163745272Y-104613363D01*
X163748541Y-104604163D01*
X163748596Y-104598931D01*
X163744220Y-104582575D01*
X163732921Y-104550273D01*
X163716638Y-104507401D01*
X163705036Y-104478231D01*
X163664604Y-104392488D01*
X163613261Y-104311537D01*
X163583615Y-104272155D01*
X163551659Y-104232518D01*
X163524974Y-104201334D01*
X163506626Y-104182064D01*
X163499863Y-104177651D01*
X163501644Y-104189879D01*
G37*
X163501644Y-104189879D02*
X163510557Y-104218918D01*
X163525084Y-104260167D01*
X163540173Y-104300002D01*
X163571571Y-104373140D01*
X163605737Y-104434929D01*
X163649223Y-104496799D01*
X163663576Y-104515206D01*
X163695435Y-104554983D01*
X163721737Y-104587019D01*
X163739400Y-104607612D01*
X163745272Y-104613363D01*
X163748541Y-104604163D01*
X163748596Y-104598931D01*
X163744220Y-104582575D01*
X163732921Y-104550273D01*
X163716638Y-104507401D01*
X163705036Y-104478231D01*
X163664604Y-104392488D01*
X163613261Y-104311537D01*
X163583615Y-104272155D01*
X163551659Y-104232518D01*
X163524974Y-104201334D01*
X163506626Y-104182064D01*
X163499863Y-104177651D01*
X163501644Y-104189879D01*
G36*
X164172976Y-104176549D02*
G01*
X164161812Y-104189149D01*
X164148574Y-104206297D01*
X164125283Y-104236419D01*
X164096024Y-104274231D01*
X164082063Y-104292265D01*
X164049026Y-104338309D01*
X164018867Y-104386232D01*
X163996820Y-104427546D01*
X163992585Y-104437345D01*
X163973564Y-104485262D01*
X163953339Y-104536202D01*
X163945623Y-104555636D01*
X163934491Y-104587397D01*
X163929979Y-104608364D01*
X163931612Y-104613363D01*
X163941837Y-104604771D01*
X163962809Y-104581457D01*
X163991342Y-104547112D01*
X164020147Y-104510735D01*
X164069810Y-104441916D01*
X164107721Y-104376739D01*
X164140104Y-104304347D01*
X164143736Y-104295116D01*
X164165792Y-104235632D01*
X164178052Y-104195840D01*
X164180464Y-104176044D01*
X164172976Y-104176549D01*
G37*
X164172976Y-104176549D02*
X164161812Y-104189149D01*
X164148574Y-104206297D01*
X164125283Y-104236419D01*
X164096024Y-104274231D01*
X164082063Y-104292265D01*
X164049026Y-104338309D01*
X164018867Y-104386232D01*
X163996820Y-104427546D01*
X163992585Y-104437345D01*
X163973564Y-104485262D01*
X163953339Y-104536202D01*
X163945623Y-104555636D01*
X163934491Y-104587397D01*
X163929979Y-104608364D01*
X163931612Y-104613363D01*
X163941837Y-104604771D01*
X163962809Y-104581457D01*
X163991342Y-104547112D01*
X164020147Y-104510735D01*
X164069810Y-104441916D01*
X164107721Y-104376739D01*
X164140104Y-104304347D01*
X164143736Y-104295116D01*
X164165792Y-104235632D01*
X164178052Y-104195840D01*
X164180464Y-104176044D01*
X164172976Y-104176549D01*
G36*
X163256552Y-104435139D02*
G01*
X163273249Y-104452823D01*
X163302635Y-104478952D01*
X163339908Y-104509274D01*
X163378883Y-104539117D01*
X163414051Y-104563677D01*
X163449834Y-104585265D01*
X163490659Y-104606194D01*
X163540947Y-104628775D01*
X163605125Y-104655320D01*
X163665477Y-104679396D01*
X163678486Y-104678906D01*
X163679884Y-104675212D01*
X163671350Y-104664377D01*
X163648316Y-104642910D01*
X163614607Y-104614231D01*
X163585506Y-104590748D01*
X163501512Y-104531556D01*
X163413974Y-104485758D01*
X163382383Y-104472407D01*
X163334646Y-104453888D01*
X163293638Y-104439250D01*
X163264873Y-104430393D01*
X163255412Y-104428636D01*
X163256552Y-104435139D01*
G37*
X163256552Y-104435139D02*
X163273249Y-104452823D01*
X163302635Y-104478952D01*
X163339908Y-104509274D01*
X163378883Y-104539117D01*
X163414051Y-104563677D01*
X163449834Y-104585265D01*
X163490659Y-104606194D01*
X163540947Y-104628775D01*
X163605125Y-104655320D01*
X163665477Y-104679396D01*
X163678486Y-104678906D01*
X163679884Y-104675212D01*
X163671350Y-104664377D01*
X163648316Y-104642910D01*
X163614607Y-104614231D01*
X163585506Y-104590748D01*
X163501512Y-104531556D01*
X163413974Y-104485758D01*
X163382383Y-104472407D01*
X163334646Y-104453888D01*
X163293638Y-104439250D01*
X163264873Y-104430393D01*
X163255412Y-104428636D01*
X163256552Y-104435139D01*
G36*
X164420469Y-104428284D02*
G01*
X164393606Y-104436152D01*
X164354002Y-104450390D01*
X164311031Y-104467472D01*
X164220959Y-104509510D01*
X164141004Y-104558446D01*
X164091667Y-104594897D01*
X164040768Y-104634972D01*
X164008033Y-104662276D01*
X163994013Y-104677503D01*
X163999259Y-104681347D01*
X164024322Y-104674505D01*
X164069753Y-104657670D01*
X164124409Y-104636176D01*
X164200593Y-104602592D01*
X164265665Y-104565223D01*
X164331406Y-104517254D01*
X164335113Y-104514302D01*
X164374318Y-104482086D01*
X164405688Y-104454607D01*
X164425443Y-104435283D01*
X164430363Y-104428179D01*
X164420469Y-104428284D01*
G37*
X164420469Y-104428284D02*
X164393606Y-104436152D01*
X164354002Y-104450390D01*
X164311031Y-104467472D01*
X164220959Y-104509510D01*
X164141004Y-104558446D01*
X164091667Y-104594897D01*
X164040768Y-104634972D01*
X164008033Y-104662276D01*
X163994013Y-104677503D01*
X163999259Y-104681347D01*
X164024322Y-104674505D01*
X164069753Y-104657670D01*
X164124409Y-104636176D01*
X164200593Y-104602592D01*
X164265665Y-104565223D01*
X164331406Y-104517254D01*
X164335113Y-104514302D01*
X164374318Y-104482086D01*
X164405688Y-104454607D01*
X164425443Y-104435283D01*
X164430363Y-104428179D01*
X164420469Y-104428284D01*
G36*
X163355136Y-104734215D02*
G01*
X163297711Y-104741077D01*
X163270732Y-104745015D01*
X163219601Y-104752980D01*
X163177672Y-104760037D01*
X163149734Y-104765346D01*
X163140567Y-104767857D01*
X163148902Y-104771349D01*
X163175035Y-104776781D01*
X163213826Y-104783406D01*
X163260138Y-104790482D01*
X163308833Y-104797263D01*
X163354774Y-104803006D01*
X163392821Y-104806967D01*
X163417838Y-104808401D01*
X163420136Y-104808352D01*
X163451704Y-104805707D01*
X163493931Y-104800522D01*
X163518272Y-104796948D01*
X163578228Y-104787401D01*
X163618283Y-104780508D01*
X163641364Y-104775448D01*
X163650398Y-104771399D01*
X163648312Y-104767538D01*
X163638440Y-104763199D01*
X163616637Y-104757712D01*
X163578477Y-104750720D01*
X163530540Y-104743372D01*
X163505667Y-104740015D01*
X163449891Y-104733880D01*
X163402788Y-104731881D01*
X163355136Y-104734215D01*
G37*
X163355136Y-104734215D02*
X163297711Y-104741077D01*
X163270732Y-104745015D01*
X163219601Y-104752980D01*
X163177672Y-104760037D01*
X163149734Y-104765346D01*
X163140567Y-104767857D01*
X163148902Y-104771349D01*
X163175035Y-104776781D01*
X163213826Y-104783406D01*
X163260138Y-104790482D01*
X163308833Y-104797263D01*
X163354774Y-104803006D01*
X163392821Y-104806967D01*
X163417838Y-104808401D01*
X163420136Y-104808352D01*
X163451704Y-104805707D01*
X163493931Y-104800522D01*
X163518272Y-104796948D01*
X163578228Y-104787401D01*
X163618283Y-104780508D01*
X163641364Y-104775448D01*
X163650398Y-104771399D01*
X163648312Y-104767538D01*
X163638440Y-104763199D01*
X163616637Y-104757712D01*
X163578477Y-104750720D01*
X163530540Y-104743372D01*
X163505667Y-104740015D01*
X163449891Y-104733880D01*
X163402788Y-104731881D01*
X163355136Y-104734215D01*
G36*
X164216968Y-104734773D02*
G01*
X164173120Y-104740181D01*
X164123485Y-104747560D01*
X164080552Y-104755020D01*
X164050939Y-104761368D01*
X164043722Y-104763543D01*
X164031736Y-104769888D01*
X164038367Y-104774705D01*
X164060909Y-104779282D01*
X164095347Y-104785161D01*
X164140356Y-104792858D01*
X164169825Y-104797902D01*
X164216309Y-104804718D01*
X164258390Y-104807591D01*
X164302855Y-104806333D01*
X164356487Y-104800760D01*
X164424591Y-104790914D01*
X164471844Y-104783375D01*
X164510651Y-104776779D01*
X164535167Y-104772139D01*
X164540045Y-104770936D01*
X164533980Y-104767851D01*
X164509001Y-104762276D01*
X164469055Y-104754989D01*
X164418087Y-104746768D01*
X164415444Y-104746365D01*
X164351749Y-104737341D01*
X164302751Y-104732536D01*
X164260479Y-104731748D01*
X164216968Y-104734773D01*
G37*
X164216968Y-104734773D02*
X164173120Y-104740181D01*
X164123485Y-104747560D01*
X164080552Y-104755020D01*
X164050939Y-104761368D01*
X164043722Y-104763543D01*
X164031736Y-104769888D01*
X164038367Y-104774705D01*
X164060909Y-104779282D01*
X164095347Y-104785161D01*
X164140356Y-104792858D01*
X164169825Y-104797902D01*
X164216309Y-104804718D01*
X164258390Y-104807591D01*
X164302855Y-104806333D01*
X164356487Y-104800760D01*
X164424591Y-104790914D01*
X164471844Y-104783375D01*
X164510651Y-104776779D01*
X164535167Y-104772139D01*
X164540045Y-104770936D01*
X164533980Y-104767851D01*
X164509001Y-104762276D01*
X164469055Y-104754989D01*
X164418087Y-104746768D01*
X164415444Y-104746365D01*
X164351749Y-104737341D01*
X164302751Y-104732536D01*
X164260479Y-104731748D01*
X164216968Y-104734773D01*
G36*
X163641784Y-104870850D02*
G01*
X163592731Y-104888610D01*
X163551067Y-104905358D01*
X163473713Y-104940484D01*
X163408287Y-104978260D01*
X163343925Y-105025069D01*
X163334583Y-105032543D01*
X163295147Y-105065750D01*
X163268848Y-105090795D01*
X163257672Y-105105640D01*
X163260232Y-105108862D01*
X163279679Y-105104175D01*
X163314540Y-105092349D01*
X163359042Y-105075428D01*
X163387516Y-105063867D01*
X163479593Y-105017776D01*
X163575532Y-104955523D01*
X163668633Y-104881479D01*
X163673366Y-104877304D01*
X163682707Y-104865058D01*
X163671978Y-104862953D01*
X163641784Y-104870850D01*
G37*
X163641784Y-104870850D02*
X163592731Y-104888610D01*
X163551067Y-104905358D01*
X163473713Y-104940484D01*
X163408287Y-104978260D01*
X163343925Y-105025069D01*
X163334583Y-105032543D01*
X163295147Y-105065750D01*
X163268848Y-105090795D01*
X163257672Y-105105640D01*
X163260232Y-105108862D01*
X163279679Y-105104175D01*
X163314540Y-105092349D01*
X163359042Y-105075428D01*
X163387516Y-105063867D01*
X163479593Y-105017776D01*
X163575532Y-104955523D01*
X163668633Y-104881479D01*
X163673366Y-104877304D01*
X163682707Y-104865058D01*
X163671978Y-104862953D01*
X163641784Y-104870850D01*
G36*
X164004270Y-104866793D02*
G01*
X164023715Y-104885873D01*
X164055043Y-104913116D01*
X164090755Y-104942186D01*
X164163323Y-104995223D01*
X164233315Y-105035816D01*
X164300584Y-105065997D01*
X164347685Y-105084406D01*
X164387370Y-105098905D01*
X164414412Y-105107641D01*
X164422806Y-105109348D01*
X164422992Y-105102582D01*
X164408579Y-105085873D01*
X164395727Y-105074112D01*
X164326545Y-105017254D01*
X164265161Y-104973513D01*
X164204459Y-104938377D01*
X164137320Y-104907335D01*
X164123780Y-104901743D01*
X164076147Y-104883027D01*
X164036296Y-104868608D01*
X164009112Y-104860181D01*
X163999924Y-104858828D01*
X164004270Y-104866793D01*
G37*
X164004270Y-104866793D02*
X164023715Y-104885873D01*
X164055043Y-104913116D01*
X164090755Y-104942186D01*
X164163323Y-104995223D01*
X164233315Y-105035816D01*
X164300584Y-105065997D01*
X164347685Y-105084406D01*
X164387370Y-105098905D01*
X164414412Y-105107641D01*
X164422806Y-105109348D01*
X164422992Y-105102582D01*
X164408579Y-105085873D01*
X164395727Y-105074112D01*
X164326545Y-105017254D01*
X164265161Y-104973513D01*
X164204459Y-104938377D01*
X164137320Y-104907335D01*
X164123780Y-104901743D01*
X164076147Y-104883027D01*
X164036296Y-104868608D01*
X164009112Y-104860181D01*
X163999924Y-104858828D01*
X164004270Y-104866793D01*
G36*
X163738409Y-104938296D02*
G01*
X163719254Y-104957370D01*
X163692007Y-104988410D01*
X163663539Y-105023294D01*
X163616947Y-105086036D01*
X163581605Y-105144456D01*
X163551305Y-105209347D01*
X163539300Y-105239290D01*
X163521428Y-105286861D01*
X163507845Y-105325912D01*
X163500083Y-105351837D01*
X163499104Y-105360043D01*
X163507683Y-105353505D01*
X163527352Y-105332138D01*
X163555083Y-105299384D01*
X163584207Y-105263297D01*
X163635171Y-105193894D01*
X163673900Y-105128204D01*
X163706472Y-105055876D01*
X163707367Y-105053622D01*
X163725082Y-105006979D01*
X163738445Y-104968071D01*
X163745778Y-104942019D01*
X163746503Y-104934372D01*
X163738409Y-104938296D01*
G37*
X163738409Y-104938296D02*
X163719254Y-104957370D01*
X163692007Y-104988410D01*
X163663539Y-105023294D01*
X163616947Y-105086036D01*
X163581605Y-105144456D01*
X163551305Y-105209347D01*
X163539300Y-105239290D01*
X163521428Y-105286861D01*
X163507845Y-105325912D01*
X163500083Y-105351837D01*
X163499104Y-105360043D01*
X163507683Y-105353505D01*
X163527352Y-105332138D01*
X163555083Y-105299384D01*
X163584207Y-105263297D01*
X163635171Y-105193894D01*
X163673900Y-105128204D01*
X163706472Y-105055876D01*
X163707367Y-105053622D01*
X163725082Y-105006979D01*
X163738445Y-104968071D01*
X163745778Y-104942019D01*
X163746503Y-104934372D01*
X163738409Y-104938296D01*
G36*
X163930480Y-104934268D02*
G01*
X163936348Y-104957305D01*
X163945212Y-104981775D01*
X163964070Y-105029308D01*
X163984626Y-105081168D01*
X163992544Y-105101159D01*
X164023021Y-105161773D01*
X164070302Y-105231245D01*
X164135586Y-105311307D01*
X164146275Y-105323511D01*
X164168742Y-105347473D01*
X164183720Y-105360600D01*
X164187428Y-105361163D01*
X164183587Y-105347605D01*
X164172815Y-105317418D01*
X164156866Y-105275367D01*
X164141462Y-105236153D01*
X164108651Y-105161592D01*
X164072882Y-105098621D01*
X164027640Y-105036014D01*
X164019034Y-105025216D01*
X163986619Y-104985795D01*
X163958929Y-104953658D01*
X163939466Y-104932780D01*
X163932466Y-104926934D01*
X163930480Y-104934268D01*
G37*
X163930480Y-104934268D02*
X163936348Y-104957305D01*
X163945212Y-104981775D01*
X163964070Y-105029308D01*
X163984626Y-105081168D01*
X163992544Y-105101159D01*
X164023021Y-105161773D01*
X164070302Y-105231245D01*
X164135586Y-105311307D01*
X164146275Y-105323511D01*
X164168742Y-105347473D01*
X164183720Y-105360600D01*
X164187428Y-105361163D01*
X164183587Y-105347605D01*
X164172815Y-105317418D01*
X164156866Y-105275367D01*
X164141462Y-105236153D01*
X164108651Y-105161592D01*
X164072882Y-105098621D01*
X164027640Y-105036014D01*
X164019034Y-105025216D01*
X163986619Y-104985795D01*
X163958929Y-104953658D01*
X163939466Y-104932780D01*
X163932466Y-104926934D01*
X163930480Y-104934268D01*
G36*
X164592353Y-105210123D02*
G01*
X164592350Y-105210840D01*
X164601876Y-105222149D01*
X164628237Y-105243988D01*
X164668767Y-105274518D01*
X164720803Y-105311901D01*
X164781678Y-105354301D01*
X164848729Y-105399878D01*
X164919289Y-105446796D01*
X164990695Y-105493216D01*
X165060280Y-105537300D01*
X165111171Y-105568635D01*
X165199246Y-105622839D01*
X165269623Y-105668258D01*
X165324933Y-105707053D01*
X165367809Y-105741387D01*
X165400884Y-105773423D01*
X165426790Y-105805322D01*
X165448158Y-105839248D01*
X165454244Y-105850461D01*
X165486772Y-105912227D01*
X165486058Y-106737727D01*
X165485825Y-106874528D01*
X165485380Y-107005148D01*
X165484744Y-107127661D01*
X165483937Y-107240142D01*
X165482979Y-107340664D01*
X165481892Y-107427302D01*
X165480694Y-107498131D01*
X165479408Y-107551225D01*
X165478052Y-107584658D01*
X165476958Y-107595857D01*
X165468572Y-107628487D01*
X165425718Y-107603232D01*
X165377411Y-107571959D01*
X165316817Y-107528450D01*
X165248464Y-107476294D01*
X165176881Y-107419079D01*
X165106596Y-107360394D01*
X165042138Y-107303827D01*
X165007636Y-107271916D01*
X164954889Y-107222957D01*
X164914681Y-107188480D01*
X164883799Y-107166085D01*
X164859031Y-107153367D01*
X164842988Y-107148820D01*
X164819364Y-107141699D01*
X164796087Y-107127395D01*
X164768804Y-107102378D01*
X164733161Y-107063114D01*
X164723406Y-107051794D01*
X164546148Y-106828588D01*
X164382030Y-106589106D01*
X164233614Y-106337596D01*
X164103461Y-106078305D01*
X164022478Y-105889136D01*
X163991876Y-105809033D01*
X163961347Y-105723675D01*
X163932524Y-105638109D01*
X163907039Y-105557380D01*
X163886525Y-105486532D01*
X163872613Y-105430611D01*
X163870114Y-105418259D01*
X163859451Y-105386295D01*
X163843261Y-105362124D01*
X163825775Y-105349549D01*
X163811223Y-105352374D01*
X163806319Y-105360896D01*
X163802331Y-105376886D01*
X163794304Y-105412576D01*
X163782867Y-105465052D01*
X163768647Y-105531399D01*
X163752270Y-105608703D01*
X163734365Y-105694049D01*
X163725752Y-105735376D01*
X163707501Y-105822091D01*
X163690501Y-105900875D01*
X163675361Y-105969060D01*
X163662689Y-106023978D01*
X163653095Y-106062964D01*
X163647187Y-106083349D01*
X163645790Y-106085724D01*
X163638915Y-106073738D01*
X163626779Y-106045899D01*
X163611932Y-106008080D01*
X163611035Y-106005688D01*
X163594875Y-105965206D01*
X163581980Y-105942147D01*
X163568821Y-105931867D01*
X163553308Y-105929703D01*
X163519616Y-105931697D01*
X163495793Y-105939974D01*
X163477681Y-105958623D01*
X163461121Y-105991732D01*
X163444217Y-106036962D01*
X163430007Y-106071147D01*
X163408653Y-106115180D01*
X163382528Y-106164938D01*
X163354007Y-106216294D01*
X163325461Y-106265125D01*
X163299263Y-106307306D01*
X163277788Y-106338712D01*
X163263407Y-106355218D01*
X163260249Y-106356727D01*
X163254126Y-106346820D01*
X163242750Y-106320942D01*
X163229636Y-106287454D01*
X163215108Y-106251809D01*
X163202628Y-106226806D01*
X163195381Y-106218181D01*
X163179060Y-106227860D01*
X163160227Y-106252109D01*
X163144113Y-106283743D01*
X163140711Y-106293227D01*
X163131596Y-106313895D01*
X163116591Y-106326125D01*
X163088914Y-106334020D01*
X163067045Y-106337810D01*
X163030798Y-106345592D01*
X163004461Y-106354967D01*
X162996220Y-106360901D01*
X162989034Y-106376931D01*
X162976431Y-106409376D01*
X162960477Y-106452807D01*
X162950038Y-106482218D01*
X162928312Y-106539766D01*
X162906756Y-106583932D01*
X162880097Y-106623773D01*
X162843067Y-106668350D01*
X162839210Y-106672718D01*
X162791013Y-106728546D01*
X162749529Y-106780551D01*
X162713379Y-106831666D01*
X162681187Y-106884825D01*
X162651577Y-106942958D01*
X162623172Y-107009000D01*
X162594594Y-107085883D01*
X162564467Y-107176538D01*
X162531414Y-107283899D01*
X162496357Y-107402980D01*
X162484174Y-107413838D01*
X162456915Y-107427845D01*
X162433988Y-107436993D01*
X162394976Y-107455076D01*
X162358460Y-107482160D01*
X162317805Y-107523311D01*
X162311079Y-107530852D01*
X162280573Y-107564127D01*
X162255276Y-107589412D01*
X162239357Y-107602621D01*
X162236800Y-107603636D01*
X162230571Y-107600005D01*
X162225101Y-107588215D01*
X162220335Y-107566920D01*
X162216217Y-107534774D01*
X162212693Y-107490432D01*
X162209706Y-107432546D01*
X162207200Y-107359771D01*
X162205121Y-107270761D01*
X162203413Y-107164170D01*
X162202019Y-107038652D01*
X162200886Y-106892861D01*
X162199957Y-106725451D01*
X162199878Y-106708696D01*
X162196318Y-105934983D01*
X162233164Y-105860105D01*
X162257741Y-105816162D01*
X162285492Y-105775427D01*
X162308210Y-105749024D01*
X162329464Y-105732207D01*
X162366975Y-105705950D01*
X162417156Y-105672621D01*
X162476420Y-105634590D01*
X162541182Y-105594226D01*
X162560000Y-105582713D01*
X162625447Y-105542053D01*
X162695013Y-105497449D01*
X162766022Y-105450758D01*
X162835799Y-105403840D01*
X162901666Y-105358550D01*
X162960950Y-105316748D01*
X163010973Y-105280290D01*
X163049060Y-105251035D01*
X163072535Y-105230840D01*
X163079002Y-105222386D01*
X163070758Y-105213964D01*
X163068121Y-105213727D01*
X163050074Y-105219031D01*
X163014774Y-105233939D01*
X162965207Y-105256942D01*
X162904361Y-105286532D01*
X162835225Y-105321202D01*
X162760785Y-105359444D01*
X162684030Y-105399750D01*
X162607947Y-105440611D01*
X162535524Y-105480520D01*
X162501632Y-105499639D01*
X162418033Y-105547930D01*
X162352132Y-105587750D01*
X162301020Y-105621046D01*
X162261788Y-105649763D01*
X162231527Y-105675848D01*
X162218035Y-105689373D01*
X162153190Y-105774208D01*
X162109000Y-105869264D01*
X162087627Y-105959902D01*
X162085346Y-105987242D01*
X162083162Y-106034727D01*
X162081091Y-106099947D01*
X162079150Y-106180493D01*
X162077355Y-106273954D01*
X162075722Y-106377919D01*
X162074268Y-106489980D01*
X162073009Y-106607725D01*
X162071961Y-106728744D01*
X162071141Y-106850628D01*
X162070565Y-106970967D01*
X162070249Y-107087349D01*
X162070210Y-107197366D01*
X162070465Y-107298606D01*
X162071029Y-107388660D01*
X162071919Y-107465118D01*
X162073151Y-107525569D01*
X162074742Y-107567604D01*
X162076575Y-107588149D01*
X162104061Y-107678850D01*
X162150408Y-107766683D01*
X162211765Y-107844594D01*
X162222389Y-107855345D01*
X162239495Y-107870874D01*
X162261660Y-107888530D01*
X162290389Y-107909242D01*
X162327188Y-107933939D01*
X162373561Y-107963550D01*
X162431012Y-107999002D01*
X162501047Y-108041226D01*
X162585169Y-108091150D01*
X162684885Y-108149702D01*
X162801698Y-108217812D01*
X162934639Y-108294975D01*
X163048299Y-108360724D01*
X163157574Y-108423716D01*
X163260574Y-108482873D01*
X163355409Y-108537122D01*
X163440189Y-108585387D01*
X163513024Y-108626592D01*
X163572024Y-108659662D01*
X163615298Y-108683522D01*
X163640957Y-108697096D01*
X163644263Y-108698694D01*
X163703030Y-108717964D01*
X163775652Y-108730043D01*
X163853928Y-108734568D01*
X163929655Y-108731178D01*
X163994631Y-108719509D01*
X164009463Y-108714822D01*
X164030605Y-108705068D01*
X164069549Y-108684818D01*
X164124174Y-108655253D01*
X164192363Y-108617558D01*
X164271997Y-108572914D01*
X164360957Y-108522504D01*
X164457125Y-108467512D01*
X164558382Y-108409119D01*
X164592508Y-108389331D01*
X164747141Y-108299557D01*
X164883140Y-108220533D01*
X165001806Y-108151355D01*
X165104438Y-108091118D01*
X165192337Y-108038917D01*
X165266802Y-107993849D01*
X165329134Y-107955007D01*
X165380633Y-107921488D01*
X165422599Y-107892387D01*
X165456332Y-107866799D01*
X165483132Y-107843820D01*
X165504300Y-107822545D01*
X165521134Y-107802069D01*
X165534936Y-107781489D01*
X165547005Y-107759899D01*
X165558642Y-107736394D01*
X165571147Y-107710070D01*
X165572353Y-107707545D01*
X165613772Y-107620954D01*
X165612298Y-106795454D01*
X165611976Y-106636036D01*
X165611593Y-106497995D01*
X165611105Y-106379619D01*
X165610472Y-106279194D01*
X165609652Y-106195006D01*
X165608602Y-106125342D01*
X165607280Y-106068489D01*
X165605645Y-106022734D01*
X165603654Y-105986363D01*
X165601266Y-105957664D01*
X165598439Y-105934921D01*
X165595130Y-105916423D01*
X165591298Y-105900456D01*
X165590292Y-105896798D01*
X165559842Y-105817890D01*
X165515465Y-105741730D01*
X165462307Y-105676416D01*
X165433529Y-105649939D01*
X165415089Y-105637668D01*
X165379733Y-105616635D01*
X165330141Y-105588284D01*
X165268995Y-105554058D01*
X165198976Y-105515398D01*
X165122766Y-105473747D01*
X165043047Y-105430548D01*
X164962499Y-105387244D01*
X164883805Y-105345276D01*
X164809646Y-105306088D01*
X164742703Y-105271122D01*
X164685657Y-105241820D01*
X164641191Y-105219625D01*
X164611986Y-105205980D01*
X164601215Y-105202181D01*
X164592353Y-105210123D01*
G37*
X164592353Y-105210123D02*
X164592350Y-105210840D01*
X164601876Y-105222149D01*
X164628237Y-105243988D01*
X164668767Y-105274518D01*
X164720803Y-105311901D01*
X164781678Y-105354301D01*
X164848729Y-105399878D01*
X164919289Y-105446796D01*
X164990695Y-105493216D01*
X165060280Y-105537300D01*
X165111171Y-105568635D01*
X165199246Y-105622839D01*
X165269623Y-105668258D01*
X165324933Y-105707053D01*
X165367809Y-105741387D01*
X165400884Y-105773423D01*
X165426790Y-105805322D01*
X165448158Y-105839248D01*
X165454244Y-105850461D01*
X165486772Y-105912227D01*
X165486058Y-106737727D01*
X165485825Y-106874528D01*
X165485380Y-107005148D01*
X165484744Y-107127661D01*
X165483937Y-107240142D01*
X165482979Y-107340664D01*
X165481892Y-107427302D01*
X165480694Y-107498131D01*
X165479408Y-107551225D01*
X165478052Y-107584658D01*
X165476958Y-107595857D01*
X165468572Y-107628487D01*
X165425718Y-107603232D01*
X165377411Y-107571959D01*
X165316817Y-107528450D01*
X165248464Y-107476294D01*
X165176881Y-107419079D01*
X165106596Y-107360394D01*
X165042138Y-107303827D01*
X165007636Y-107271916D01*
X164954889Y-107222957D01*
X164914681Y-107188480D01*
X164883799Y-107166085D01*
X164859031Y-107153367D01*
X164842988Y-107148820D01*
X164819364Y-107141699D01*
X164796087Y-107127395D01*
X164768804Y-107102378D01*
X164733161Y-107063114D01*
X164723406Y-107051794D01*
X164546148Y-106828588D01*
X164382030Y-106589106D01*
X164233614Y-106337596D01*
X164103461Y-106078305D01*
X164022478Y-105889136D01*
X163991876Y-105809033D01*
X163961347Y-105723675D01*
X163932524Y-105638109D01*
X163907039Y-105557380D01*
X163886525Y-105486532D01*
X163872613Y-105430611D01*
X163870114Y-105418259D01*
X163859451Y-105386295D01*
X163843261Y-105362124D01*
X163825775Y-105349549D01*
X163811223Y-105352374D01*
X163806319Y-105360896D01*
X163802331Y-105376886D01*
X163794304Y-105412576D01*
X163782867Y-105465052D01*
X163768647Y-105531399D01*
X163752270Y-105608703D01*
X163734365Y-105694049D01*
X163725752Y-105735376D01*
X163707501Y-105822091D01*
X163690501Y-105900875D01*
X163675361Y-105969060D01*
X163662689Y-106023978D01*
X163653095Y-106062964D01*
X163647187Y-106083349D01*
X163645790Y-106085724D01*
X163638915Y-106073738D01*
X163626779Y-106045899D01*
X163611932Y-106008080D01*
X163611035Y-106005688D01*
X163594875Y-105965206D01*
X163581980Y-105942147D01*
X163568821Y-105931867D01*
X163553308Y-105929703D01*
X163519616Y-105931697D01*
X163495793Y-105939974D01*
X163477681Y-105958623D01*
X163461121Y-105991732D01*
X163444217Y-106036962D01*
X163430007Y-106071147D01*
X163408653Y-106115180D01*
X163382528Y-106164938D01*
X163354007Y-106216294D01*
X163325461Y-106265125D01*
X163299263Y-106307306D01*
X163277788Y-106338712D01*
X163263407Y-106355218D01*
X163260249Y-106356727D01*
X163254126Y-106346820D01*
X163242750Y-106320942D01*
X163229636Y-106287454D01*
X163215108Y-106251809D01*
X163202628Y-106226806D01*
X163195381Y-106218181D01*
X163179060Y-106227860D01*
X163160227Y-106252109D01*
X163144113Y-106283743D01*
X163140711Y-106293227D01*
X163131596Y-106313895D01*
X163116591Y-106326125D01*
X163088914Y-106334020D01*
X163067045Y-106337810D01*
X163030798Y-106345592D01*
X163004461Y-106354967D01*
X162996220Y-106360901D01*
X162989034Y-106376931D01*
X162976431Y-106409376D01*
X162960477Y-106452807D01*
X162950038Y-106482218D01*
X162928312Y-106539766D01*
X162906756Y-106583932D01*
X162880097Y-106623773D01*
X162843067Y-106668350D01*
X162839210Y-106672718D01*
X162791013Y-106728546D01*
X162749529Y-106780551D01*
X162713379Y-106831666D01*
X162681187Y-106884825D01*
X162651577Y-106942958D01*
X162623172Y-107009000D01*
X162594594Y-107085883D01*
X162564467Y-107176538D01*
X162531414Y-107283899D01*
X162496357Y-107402980D01*
X162484174Y-107413838D01*
X162456915Y-107427845D01*
X162433988Y-107436993D01*
X162394976Y-107455076D01*
X162358460Y-107482160D01*
X162317805Y-107523311D01*
X162311079Y-107530852D01*
X162280573Y-107564127D01*
X162255276Y-107589412D01*
X162239357Y-107602621D01*
X162236800Y-107603636D01*
X162230571Y-107600005D01*
X162225101Y-107588215D01*
X162220335Y-107566920D01*
X162216217Y-107534774D01*
X162212693Y-107490432D01*
X162209706Y-107432546D01*
X162207200Y-107359771D01*
X162205121Y-107270761D01*
X162203413Y-107164170D01*
X162202019Y-107038652D01*
X162200886Y-106892861D01*
X162199957Y-106725451D01*
X162199878Y-106708696D01*
X162196318Y-105934983D01*
X162233164Y-105860105D01*
X162257741Y-105816162D01*
X162285492Y-105775427D01*
X162308210Y-105749024D01*
X162329464Y-105732207D01*
X162366975Y-105705950D01*
X162417156Y-105672621D01*
X162476420Y-105634590D01*
X162541182Y-105594226D01*
X162560000Y-105582713D01*
X162625447Y-105542053D01*
X162695013Y-105497449D01*
X162766022Y-105450758D01*
X162835799Y-105403840D01*
X162901666Y-105358550D01*
X162960950Y-105316748D01*
X163010973Y-105280290D01*
X163049060Y-105251035D01*
X163072535Y-105230840D01*
X163079002Y-105222386D01*
X163070758Y-105213964D01*
X163068121Y-105213727D01*
X163050074Y-105219031D01*
X163014774Y-105233939D01*
X162965207Y-105256942D01*
X162904361Y-105286532D01*
X162835225Y-105321202D01*
X162760785Y-105359444D01*
X162684030Y-105399750D01*
X162607947Y-105440611D01*
X162535524Y-105480520D01*
X162501632Y-105499639D01*
X162418033Y-105547930D01*
X162352132Y-105587750D01*
X162301020Y-105621046D01*
X162261788Y-105649763D01*
X162231527Y-105675848D01*
X162218035Y-105689373D01*
X162153190Y-105774208D01*
X162109000Y-105869264D01*
X162087627Y-105959902D01*
X162085346Y-105987242D01*
X162083162Y-106034727D01*
X162081091Y-106099947D01*
X162079150Y-106180493D01*
X162077355Y-106273954D01*
X162075722Y-106377919D01*
X162074268Y-106489980D01*
X162073009Y-106607725D01*
X162071961Y-106728744D01*
X162071141Y-106850628D01*
X162070565Y-106970967D01*
X162070249Y-107087349D01*
X162070210Y-107197366D01*
X162070465Y-107298606D01*
X162071029Y-107388660D01*
X162071919Y-107465118D01*
X162073151Y-107525569D01*
X162074742Y-107567604D01*
X162076575Y-107588149D01*
X162104061Y-107678850D01*
X162150408Y-107766683D01*
X162211765Y-107844594D01*
X162222389Y-107855345D01*
X162239495Y-107870874D01*
X162261660Y-107888530D01*
X162290389Y-107909242D01*
X162327188Y-107933939D01*
X162373561Y-107963550D01*
X162431012Y-107999002D01*
X162501047Y-108041226D01*
X162585169Y-108091150D01*
X162684885Y-108149702D01*
X162801698Y-108217812D01*
X162934639Y-108294975D01*
X163048299Y-108360724D01*
X163157574Y-108423716D01*
X163260574Y-108482873D01*
X163355409Y-108537122D01*
X163440189Y-108585387D01*
X163513024Y-108626592D01*
X163572024Y-108659662D01*
X163615298Y-108683522D01*
X163640957Y-108697096D01*
X163644263Y-108698694D01*
X163703030Y-108717964D01*
X163775652Y-108730043D01*
X163853928Y-108734568D01*
X163929655Y-108731178D01*
X163994631Y-108719509D01*
X164009463Y-108714822D01*
X164030605Y-108705068D01*
X164069549Y-108684818D01*
X164124174Y-108655253D01*
X164192363Y-108617558D01*
X164271997Y-108572914D01*
X164360957Y-108522504D01*
X164457125Y-108467512D01*
X164558382Y-108409119D01*
X164592508Y-108389331D01*
X164747141Y-108299557D01*
X164883140Y-108220533D01*
X165001806Y-108151355D01*
X165104438Y-108091118D01*
X165192337Y-108038917D01*
X165266802Y-107993849D01*
X165329134Y-107955007D01*
X165380633Y-107921488D01*
X165422599Y-107892387D01*
X165456332Y-107866799D01*
X165483132Y-107843820D01*
X165504300Y-107822545D01*
X165521134Y-107802069D01*
X165534936Y-107781489D01*
X165547005Y-107759899D01*
X165558642Y-107736394D01*
X165571147Y-107710070D01*
X165572353Y-107707545D01*
X165613772Y-107620954D01*
X165612298Y-106795454D01*
X165611976Y-106636036D01*
X165611593Y-106497995D01*
X165611105Y-106379619D01*
X165610472Y-106279194D01*
X165609652Y-106195006D01*
X165608602Y-106125342D01*
X165607280Y-106068489D01*
X165605645Y-106022734D01*
X165603654Y-105986363D01*
X165601266Y-105957664D01*
X165598439Y-105934921D01*
X165595130Y-105916423D01*
X165591298Y-105900456D01*
X165590292Y-105896798D01*
X165559842Y-105817890D01*
X165515465Y-105741730D01*
X165462307Y-105676416D01*
X165433529Y-105649939D01*
X165415089Y-105637668D01*
X165379733Y-105616635D01*
X165330141Y-105588284D01*
X165268995Y-105554058D01*
X165198976Y-105515398D01*
X165122766Y-105473747D01*
X165043047Y-105430548D01*
X164962499Y-105387244D01*
X164883805Y-105345276D01*
X164809646Y-105306088D01*
X164742703Y-105271122D01*
X164685657Y-105241820D01*
X164641191Y-105219625D01*
X164611986Y-105205980D01*
X164601215Y-105202181D01*
X164592353Y-105210123D01*
D12*
%TO.C,J4*%
X151180800Y-95046800D02*
X151190000Y-97790000D01*
X148539200Y-95046800D02*
X151155400Y-95046800D01*
X148530000Y-97790000D02*
X148539200Y-95046800D01*
X148530000Y-97790000D02*
X148530000Y-105410000D01*
X151190000Y-105410000D02*
X148530000Y-105410000D01*
X151190000Y-97790000D02*
X151190000Y-105410000D01*
X151190000Y-97790000D02*
X148530000Y-97790000D01*
%TO.C,J3*%
X156032200Y-109169200D02*
X158775400Y-109169200D01*
X156032200Y-111810800D02*
X156032200Y-109169200D01*
X158750000Y-111820000D02*
X156032200Y-111810800D01*
X158750000Y-111820000D02*
X161350000Y-111820000D01*
X161350000Y-109160000D02*
X161350000Y-111820000D01*
X158750000Y-109160000D02*
X161350000Y-109160000D01*
X158750000Y-109160000D02*
X158750000Y-111820000D01*
%TO.C,J2*%
X156032200Y-88849200D02*
X158775400Y-88849200D01*
X156032200Y-91490800D02*
X156032200Y-88849200D01*
X158750000Y-91500000D02*
X156032200Y-91490800D01*
X158750000Y-91500000D02*
X161350000Y-91500000D01*
X161350000Y-88840000D02*
X161350000Y-91500000D01*
X158750000Y-88840000D02*
X161350000Y-88840000D01*
X158750000Y-88840000D02*
X158750000Y-91500000D01*
%TO.C,J4*%
D10*
X152733333Y-96607380D02*
X152733333Y-97321666D01*
X152780952Y-97464523D01*
X152876190Y-97559761D01*
X153019047Y-97607380D01*
X153114285Y-97607380D01*
X151828571Y-96940714D02*
X151828571Y-97607380D01*
X152066666Y-96559761D02*
X152304761Y-97274047D01*
X151685714Y-97274047D01*
%TO.C,J3*%
X162893333Y-109942380D02*
X162893333Y-110656666D01*
X162940952Y-110799523D01*
X163036190Y-110894761D01*
X163179047Y-110942380D01*
X163274285Y-110942380D01*
X162512380Y-109942380D02*
X161893333Y-109942380D01*
X162226666Y-110323333D01*
X162083809Y-110323333D01*
X161988571Y-110370952D01*
X161940952Y-110418571D01*
X161893333Y-110513809D01*
X161893333Y-110751904D01*
X161940952Y-110847142D01*
X161988571Y-110894761D01*
X162083809Y-110942380D01*
X162369523Y-110942380D01*
X162464761Y-110894761D01*
X162512380Y-110847142D01*
%TO.C,J2*%
X162893333Y-89622380D02*
X162893333Y-90336666D01*
X162940952Y-90479523D01*
X163036190Y-90574761D01*
X163179047Y-90622380D01*
X163274285Y-90622380D01*
X162464761Y-89717619D02*
X162417142Y-89670000D01*
X162321904Y-89622380D01*
X162083809Y-89622380D01*
X161988571Y-89670000D01*
X161940952Y-89717619D01*
X161893333Y-89812857D01*
X161893333Y-89908095D01*
X161940952Y-90050952D01*
X162512380Y-90622380D01*
X161893333Y-90622380D01*
%TD*%
M02*
