M48
; DRILL file {KiCad (5.1.8)-1} date 11/16/21 13:30:21
; FORMAT={-:-/ absolute / inch / decimal}
; #@! TF.CreationDate,2021-11-16T13:30:21-08:00
; #@! TF.GenerationSoftware,Kicad,Pcbnew,(5.1.8)-1
; #@! TF.FileFunction,Plated,1,2,PTH
FMAT,2
INCH
T1C0.0200
T2C0.0276
T3C0.0354
T4C0.0394
T5C0.0591
%
G90
G05
T1
X6.025Y-4.06
T2
X6.55Y-3.75
X6.65Y-3.75
T3
X6.625Y-4.0425
X6.625Y-4.1213
X6.625Y-4.2
X6.57Y-3.59
X6.67Y-3.59
T4
X6.225Y-3.85
X6.225Y-3.95
X6.225Y-4.05
X6.325Y-3.85
X6.325Y-3.95
X6.325Y-4.05
X6.2Y-3.55
X6.3Y-3.55
X6.2Y-4.35
X6.3Y-4.35
X5.9Y-3.8
X5.9Y-3.9
X5.9Y-4.0
X5.9Y-4.1
T5
X6.625Y-3.9598
X6.625Y-4.2827
T0
M30
