%TF.GenerationSoftware,KiCad,Pcbnew,(5.1.8)-1*%
%TF.CreationDate,2021-11-16T13:30:18-08:00*%
%TF.ProjectId,ISPwPower,49535077-506f-4776-9572-2e6b69636164,rev?*%
%TF.SameCoordinates,Original*%
%TF.FileFunction,Soldermask,Top*%
%TF.FilePolarity,Negative*%
%FSLAX46Y46*%
G04 Gerber Fmt 4.6, Leading zero omitted, Abs format (unit mm)*
G04 Created by KiCad (PCBNEW (5.1.8)-1) date 2021-11-16 13:30:18*
%MOMM*%
%LPD*%
G01*
G04 APERTURE LIST*
%ADD10O,1.501600X1.501600*%
%ADD11C,1.501600*%
%ADD12O,1.801600X1.801600*%
%ADD13C,1.901600*%
%ADD14C,1.801600*%
%ADD15O,2.601600X1.401600*%
%ADD16O,3.601601X2.001600*%
G04 APERTURE END LIST*
D10*
%TO.C,R1*%
X168910000Y-95250000D03*
D11*
X166370000Y-95250000D03*
%TD*%
%TO.C,J4*%
G36*
G01*
X150760800Y-95670000D02*
X150760800Y-97370000D01*
G75*
G02*
X150710000Y-97420800I-50800J0D01*
G01*
X149010000Y-97420800D01*
G75*
G02*
X148959200Y-97370000I0J50800D01*
G01*
X148959200Y-95670000D01*
G75*
G02*
X149010000Y-95619200I50800J0D01*
G01*
X150710000Y-95619200D01*
G75*
G02*
X150760800Y-95670000I0J-50800D01*
G01*
G37*
D12*
X149860000Y-99060000D03*
X149860000Y-101600000D03*
X149860000Y-104140000D03*
%TD*%
%TO.C,J3*%
G36*
G01*
X156630000Y-109589200D02*
X158330000Y-109589200D01*
G75*
G02*
X158380800Y-109640000I0J-50800D01*
G01*
X158380800Y-111340000D01*
G75*
G02*
X158330000Y-111390800I-50800J0D01*
G01*
X156630000Y-111390800D01*
G75*
G02*
X156579200Y-111340000I0J50800D01*
G01*
X156579200Y-109640000D01*
G75*
G02*
X156630000Y-109589200I50800J0D01*
G01*
G37*
X160020000Y-110490000D03*
%TD*%
%TO.C,J2*%
G36*
G01*
X156630000Y-89269200D02*
X158330000Y-89269200D01*
G75*
G02*
X158380800Y-89320000I0J-50800D01*
G01*
X158380800Y-91020000D01*
G75*
G02*
X158330000Y-91070800I-50800J0D01*
G01*
X156630000Y-91070800D01*
G75*
G02*
X156579200Y-91020000I0J50800D01*
G01*
X156579200Y-89320000D01*
G75*
G02*
X156630000Y-89269200I50800J0D01*
G01*
G37*
X160020000Y-90170000D03*
%TD*%
%TO.C,D1*%
G36*
G01*
X165927200Y-92086000D02*
X165927200Y-90286000D01*
G75*
G02*
X165978000Y-90235200I50800J0D01*
G01*
X167778000Y-90235200D01*
G75*
G02*
X167828800Y-90286000I0J-50800D01*
G01*
X167828800Y-92086000D01*
G75*
G02*
X167778000Y-92136800I-50800J0D01*
G01*
X165978000Y-92136800D01*
G75*
G02*
X165927200Y-92086000I0J50800D01*
G01*
G37*
D13*
X169418000Y-91186000D03*
%TD*%
D14*
%TO.C,J1*%
X158115000Y-97790000D03*
X158115000Y-100330000D03*
X158115000Y-102870000D03*
X160655000Y-97790000D03*
X160655000Y-100330000D03*
G36*
G01*
X161555800Y-102234141D02*
X161555800Y-103505859D01*
G75*
G02*
X161290859Y-103770800I-264941J0D01*
G01*
X160019141Y-103770800D01*
G75*
G02*
X159754200Y-103505859I0J264941D01*
G01*
X159754200Y-102234141D01*
G75*
G02*
X160019141Y-101969200I264941J0D01*
G01*
X161290859Y-101969200D01*
G75*
G02*
X161555800Y-102234141I0J-264941D01*
G01*
G37*
%TD*%
%TO.C,SW1*%
G36*
G01*
X169525000Y-107380800D02*
X167025000Y-107380800D01*
G75*
G02*
X166974200Y-107330000I0J50800D01*
G01*
X166974200Y-106030000D01*
G75*
G02*
X167025000Y-105979200I50800J0D01*
G01*
X169525000Y-105979200D01*
G75*
G02*
X169575800Y-106030000I0J-50800D01*
G01*
X169575800Y-107330000D01*
G75*
G02*
X169525000Y-107380800I-50800J0D01*
G01*
G37*
D15*
X168275000Y-104680000D03*
X168275000Y-102680000D03*
D16*
X168275000Y-108780000D03*
X168275000Y-100580000D03*
%TD*%
M02*
