%TF.GenerationSoftware,KiCad,Pcbnew,(5.1.8)-1*%
%TF.CreationDate,2021-11-16T13:30:18-08:00*%
%TF.ProjectId,ISPwPower,49535077-506f-4776-9572-2e6b69636164,rev?*%
%TF.SameCoordinates,Original*%
%TF.FileFunction,Copper,L2,Bot*%
%TF.FilePolarity,Positive*%
%FSLAX46Y46*%
G04 Gerber Fmt 4.6, Leading zero omitted, Abs format (unit mm)*
G04 Created by KiCad (PCBNEW (5.1.8)-1) date 2021-11-16 13:30:18*
%MOMM*%
%LPD*%
G01*
G04 APERTURE LIST*
%TA.AperFunction,ComponentPad*%
%ADD10O,1.400000X1.400000*%
%TD*%
%TA.AperFunction,ComponentPad*%
%ADD11C,1.400000*%
%TD*%
%TA.AperFunction,ComponentPad*%
%ADD12R,1.700000X1.700000*%
%TD*%
%TA.AperFunction,ComponentPad*%
%ADD13O,1.700000X1.700000*%
%TD*%
%TA.AperFunction,ComponentPad*%
%ADD14R,1.800000X1.800000*%
%TD*%
%TA.AperFunction,ComponentPad*%
%ADD15C,1.800000*%
%TD*%
%TA.AperFunction,ComponentPad*%
%ADD16C,1.700000*%
%TD*%
%TA.AperFunction,ComponentPad*%
%ADD17R,2.500000X1.300000*%
%TD*%
%TA.AperFunction,ComponentPad*%
%ADD18O,2.500000X1.300000*%
%TD*%
%TA.AperFunction,ComponentPad*%
%ADD19O,3.500001X1.900000*%
%TD*%
%TA.AperFunction,ViaPad*%
%ADD20C,1.270000*%
%TD*%
%TA.AperFunction,Conductor*%
%ADD21C,0.254000*%
%TD*%
%TA.AperFunction,Conductor*%
%ADD22C,0.508000*%
%TD*%
%TA.AperFunction,Conductor*%
%ADD23C,0.127000*%
%TD*%
%TA.AperFunction,Conductor*%
%ADD24C,0.100000*%
%TD*%
G04 APERTURE END LIST*
D10*
%TO.P,R1,2*%
%TO.N,Net-(D1-Pad2)*%
X168910000Y-95250000D03*
D11*
%TO.P,R1,1*%
%TO.N,/Vin*%
X166370000Y-95250000D03*
%TD*%
D12*
%TO.P,J4,1*%
%TO.N,/RES*%
X149860000Y-96520000D03*
D13*
%TO.P,J4,2*%
%TO.N,/SCK*%
X149860000Y-99060000D03*
%TO.P,J4,3*%
%TO.N,/MISO*%
X149860000Y-101600000D03*
%TO.P,J4,4*%
%TO.N,/MOSI*%
X149860000Y-104140000D03*
%TD*%
D12*
%TO.P,J3,1*%
%TO.N,/Vin*%
X157480000Y-110490000D03*
D13*
%TO.P,J3,2*%
%TO.N,GND*%
X160020000Y-110490000D03*
%TD*%
D12*
%TO.P,J2,1*%
%TO.N,/Vin*%
X157480000Y-90170000D03*
D13*
%TO.P,J2,2*%
%TO.N,GND*%
X160020000Y-90170000D03*
%TD*%
D14*
%TO.P,D1,1*%
%TO.N,GND*%
X166878000Y-91186000D03*
D15*
%TO.P,D1,2*%
%TO.N,Net-(D1-Pad2)*%
X169418000Y-91186000D03*
%TD*%
D16*
%TO.P,J1,6*%
%TO.N,GND*%
X158115000Y-97790000D03*
%TO.P,J1,4*%
%TO.N,/MOSI*%
X158115000Y-100330000D03*
%TO.P,J1,2*%
%TO.N,+V*%
X158115000Y-102870000D03*
%TO.P,J1,5*%
%TO.N,/RES*%
X160655000Y-97790000D03*
%TO.P,J1,3*%
%TO.N,/SCK*%
X160655000Y-100330000D03*
%TO.P,J1,1*%
%TO.N,/MISO*%
%TA.AperFunction,ComponentPad*%
G36*
G01*
X161505000Y-102270000D02*
X161505000Y-103470000D01*
G75*
G02*
X161255000Y-103720000I-250000J0D01*
G01*
X160055000Y-103720000D01*
G75*
G02*
X159805000Y-103470000I0J250000D01*
G01*
X159805000Y-102270000D01*
G75*
G02*
X160055000Y-102020000I250000J0D01*
G01*
X161255000Y-102020000D01*
G75*
G02*
X161505000Y-102270000I0J-250000D01*
G01*
G37*
%TD.AperFunction*%
%TD*%
D17*
%TO.P,SW1,1*%
%TO.N,/Vin*%
X168275000Y-106680000D03*
D18*
%TO.P,SW1,2*%
%TO.N,+V*%
X168275000Y-104680000D03*
%TO.P,SW1,3*%
%TO.N,Net-(SW1-Pad3)*%
X168275000Y-102680000D03*
D19*
%TO.P,SW1,*%
%TO.N,*%
X168275000Y-108780000D03*
X168275000Y-100580000D03*
%TD*%
D20*
%TO.N,GND*%
X153035000Y-103124000D03*
%TD*%
D21*
%TO.N,Net-(D1-Pad2)*%
X169164000Y-90932000D02*
X169418000Y-90678000D01*
X169418000Y-94742000D02*
X168910000Y-95250000D01*
X169418000Y-91567000D02*
X169545000Y-91440000D01*
X169418000Y-94742000D02*
X169418000Y-91567000D01*
D22*
%TO.N,+V*%
X158115000Y-102870000D02*
X159422210Y-104177210D01*
X159925000Y-104680000D02*
X159422210Y-104177210D01*
X168275000Y-104680000D02*
X159925000Y-104680000D01*
D21*
%TO.N,/MISO*%
X159004000Y-101600000D02*
X149860000Y-101600000D01*
X160274000Y-102870000D02*
X159004000Y-101600000D01*
X160655000Y-102870000D02*
X160274000Y-102870000D01*
%TD*%
D23*
%TO.N,GND*%
X156310964Y-89320000D02*
X156310964Y-91020000D01*
X156317094Y-91082241D01*
X156335249Y-91142090D01*
X156364731Y-91197247D01*
X156404407Y-91245593D01*
X156452753Y-91285269D01*
X156507910Y-91314751D01*
X156567759Y-91332906D01*
X156630000Y-91339036D01*
X158330000Y-91339036D01*
X158392241Y-91332906D01*
X158452090Y-91314751D01*
X158507247Y-91285269D01*
X158555593Y-91245593D01*
X158595269Y-91197247D01*
X158624751Y-91142090D01*
X158642906Y-91082241D01*
X158649036Y-91020000D01*
X158649036Y-90360502D01*
X158754189Y-90360502D01*
X158658459Y-90578522D01*
X158764319Y-90836296D01*
X158918434Y-91068465D01*
X159114882Y-91266106D01*
X159346113Y-91421624D01*
X159603241Y-91529043D01*
X159611480Y-91531533D01*
X159829500Y-91434354D01*
X159829500Y-90360500D01*
X160210500Y-90360500D01*
X160210500Y-91434354D01*
X160428520Y-91531533D01*
X160436759Y-91529043D01*
X160693887Y-91421624D01*
X160925118Y-91266106D01*
X161121566Y-91068465D01*
X161275681Y-90836296D01*
X161381541Y-90578522D01*
X161285810Y-90360500D01*
X160210500Y-90360500D01*
X159829500Y-90360500D01*
X159809500Y-90360500D01*
X159809500Y-90286000D01*
X165403735Y-90286000D01*
X165406500Y-90852625D01*
X165549375Y-90995500D01*
X166687500Y-90995500D01*
X166687500Y-89857375D01*
X166544625Y-89714500D01*
X165978000Y-89711735D01*
X165865966Y-89722769D01*
X165758238Y-89755448D01*
X165658955Y-89808516D01*
X165571933Y-89879933D01*
X165500516Y-89966955D01*
X165447448Y-90066238D01*
X165414769Y-90173966D01*
X165403735Y-90286000D01*
X159809500Y-90286000D01*
X159809500Y-89979500D01*
X159829500Y-89979500D01*
X159829500Y-89959500D01*
X160210500Y-89959500D01*
X160210500Y-89979500D01*
X161285810Y-89979500D01*
X161381541Y-89761478D01*
X161275681Y-89503704D01*
X161121566Y-89271535D01*
X161117555Y-89267500D01*
X170447500Y-89267500D01*
X170447500Y-90535313D01*
X170363694Y-90409889D01*
X170194111Y-90240306D01*
X169994703Y-90107065D01*
X169773132Y-90015288D01*
X169537913Y-89968500D01*
X169298087Y-89968500D01*
X169062868Y-90015288D01*
X168841297Y-90107065D01*
X168641889Y-90240306D01*
X168472306Y-90409889D01*
X168350773Y-90591775D01*
X168352265Y-90286000D01*
X168341231Y-90173966D01*
X168308552Y-90066238D01*
X168255484Y-89966955D01*
X168184067Y-89879933D01*
X168097045Y-89808516D01*
X167997762Y-89755448D01*
X167890034Y-89722769D01*
X167778000Y-89711735D01*
X167211375Y-89714500D01*
X167068500Y-89857375D01*
X167068500Y-90995500D01*
X167088500Y-90995500D01*
X167088500Y-91376500D01*
X167068500Y-91376500D01*
X167068500Y-92514625D01*
X167211375Y-92657500D01*
X167778000Y-92660265D01*
X167890034Y-92649231D01*
X167997762Y-92616552D01*
X168097045Y-92563484D01*
X168184067Y-92492067D01*
X168255484Y-92405045D01*
X168308552Y-92305762D01*
X168341231Y-92198034D01*
X168352265Y-92086000D01*
X168350773Y-91780225D01*
X168472306Y-91962111D01*
X168641889Y-92131694D01*
X168841297Y-92264935D01*
X168973501Y-92319695D01*
X168973500Y-94232500D01*
X168809785Y-94232500D01*
X168613206Y-94271602D01*
X168428033Y-94348303D01*
X168261382Y-94459656D01*
X168119656Y-94601382D01*
X168008303Y-94768033D01*
X167931602Y-94953206D01*
X167892500Y-95149785D01*
X167892500Y-95350215D01*
X167931602Y-95546794D01*
X168008303Y-95731967D01*
X168119656Y-95898618D01*
X168261382Y-96040344D01*
X168428033Y-96151697D01*
X168613206Y-96228398D01*
X168809785Y-96267500D01*
X169010215Y-96267500D01*
X169206794Y-96228398D01*
X169391967Y-96151697D01*
X169558618Y-96040344D01*
X169700344Y-95898618D01*
X169811697Y-95731967D01*
X169888398Y-95546794D01*
X169927500Y-95350215D01*
X169927500Y-95149785D01*
X169888398Y-94953206D01*
X169848010Y-94855701D01*
X169856068Y-94829137D01*
X169862500Y-94763830D01*
X169862500Y-94763821D01*
X169864649Y-94742001D01*
X169862500Y-94720181D01*
X169862500Y-92319695D01*
X169994703Y-92264935D01*
X170194111Y-92131694D01*
X170363694Y-91962111D01*
X170447500Y-91836687D01*
X170447501Y-111392500D01*
X161117555Y-111392500D01*
X161121566Y-111388465D01*
X161275681Y-111156296D01*
X161381541Y-110898522D01*
X161285810Y-110680500D01*
X160210500Y-110680500D01*
X160210500Y-110700500D01*
X159829500Y-110700500D01*
X159829500Y-110680500D01*
X159809500Y-110680500D01*
X159809500Y-110299500D01*
X159829500Y-110299500D01*
X159829500Y-109225646D01*
X160210500Y-109225646D01*
X160210500Y-110299500D01*
X161285810Y-110299500D01*
X161381541Y-110081478D01*
X161275681Y-109823704D01*
X161121566Y-109591535D01*
X160925118Y-109393894D01*
X160693887Y-109238376D01*
X160436759Y-109130957D01*
X160428520Y-109128467D01*
X160210500Y-109225646D01*
X159829500Y-109225646D01*
X159611480Y-109128467D01*
X159603241Y-109130957D01*
X159346113Y-109238376D01*
X159114882Y-109393894D01*
X158918434Y-109591535D01*
X158764319Y-109823704D01*
X158658459Y-110081478D01*
X158754189Y-110299498D01*
X158649036Y-110299498D01*
X158649036Y-109640000D01*
X158642906Y-109577759D01*
X158624751Y-109517910D01*
X158595269Y-109462753D01*
X158555593Y-109414407D01*
X158507247Y-109374731D01*
X158452090Y-109345249D01*
X158392241Y-109327094D01*
X158330000Y-109320964D01*
X156630000Y-109320964D01*
X156567759Y-109327094D01*
X156507910Y-109345249D01*
X156452753Y-109374731D01*
X156404407Y-109414407D01*
X156364731Y-109462753D01*
X156335249Y-109517910D01*
X156317094Y-109577759D01*
X156310964Y-109640000D01*
X156310964Y-111340000D01*
X156316135Y-111392500D01*
X154672500Y-111392500D01*
X154672500Y-108780000D01*
X166201368Y-108780000D01*
X166225840Y-109028473D01*
X166298317Y-109267398D01*
X166416014Y-109487592D01*
X166574406Y-109680594D01*
X166767408Y-109838986D01*
X166987602Y-109956683D01*
X167226527Y-110029160D01*
X167412740Y-110047500D01*
X169137260Y-110047500D01*
X169323473Y-110029160D01*
X169562398Y-109956683D01*
X169782592Y-109838986D01*
X169975594Y-109680594D01*
X170133986Y-109487592D01*
X170251683Y-109267398D01*
X170324160Y-109028473D01*
X170348632Y-108780000D01*
X170324160Y-108531527D01*
X170251683Y-108292602D01*
X170133986Y-108072408D01*
X169975594Y-107879406D01*
X169782592Y-107721014D01*
X169618642Y-107633380D01*
X169647090Y-107624751D01*
X169702247Y-107595269D01*
X169750593Y-107555593D01*
X169790269Y-107507247D01*
X169819751Y-107452090D01*
X169837906Y-107392241D01*
X169844036Y-107330000D01*
X169844036Y-106030000D01*
X169837906Y-105967759D01*
X169819751Y-105907910D01*
X169790269Y-105852753D01*
X169750593Y-105804407D01*
X169702247Y-105764731D01*
X169647090Y-105735249D01*
X169587241Y-105717094D01*
X169525000Y-105710964D01*
X167025000Y-105710964D01*
X166962759Y-105717094D01*
X166902910Y-105735249D01*
X166847753Y-105764731D01*
X166799407Y-105804407D01*
X166759731Y-105852753D01*
X166730249Y-105907910D01*
X166712094Y-105967759D01*
X166705964Y-106030000D01*
X166705964Y-107330000D01*
X166712094Y-107392241D01*
X166730249Y-107452090D01*
X166759731Y-107507247D01*
X166799407Y-107555593D01*
X166847753Y-107595269D01*
X166902910Y-107624751D01*
X166931358Y-107633380D01*
X166767408Y-107721014D01*
X166574406Y-107879406D01*
X166416014Y-108072408D01*
X166298317Y-108292602D01*
X166225840Y-108531527D01*
X166201368Y-108780000D01*
X154672500Y-108780000D01*
X154672500Y-105428050D01*
X154674278Y-105410000D01*
X154667182Y-105337957D01*
X154646168Y-105268683D01*
X154612043Y-105204840D01*
X154566119Y-105148881D01*
X154510160Y-105102957D01*
X154446317Y-105068832D01*
X154377043Y-105047818D01*
X154323051Y-105042500D01*
X154305000Y-105040722D01*
X154286949Y-105042500D01*
X150608594Y-105042500D01*
X150766856Y-104884238D01*
X150894625Y-104693019D01*
X150982634Y-104480547D01*
X151027500Y-104254989D01*
X151027500Y-104025011D01*
X150982634Y-103799453D01*
X150894625Y-103586981D01*
X150766856Y-103395762D01*
X150604238Y-103233144D01*
X150413019Y-103105375D01*
X150200547Y-103017366D01*
X149974989Y-102972500D01*
X149745011Y-102972500D01*
X149519453Y-103017366D01*
X149306981Y-103105375D01*
X149115762Y-103233144D01*
X148957500Y-103391406D01*
X148957500Y-102348594D01*
X149115762Y-102506856D01*
X149306981Y-102634625D01*
X149519453Y-102722634D01*
X149745011Y-102767500D01*
X149974989Y-102767500D01*
X150200547Y-102722634D01*
X150413019Y-102634625D01*
X150604238Y-102506856D01*
X150766856Y-102344238D01*
X150894625Y-102153019D01*
X150939575Y-102044500D01*
X157289406Y-102044500D01*
X157208144Y-102125762D01*
X157080375Y-102316981D01*
X156992366Y-102529453D01*
X156947500Y-102755011D01*
X156947500Y-102984989D01*
X156992366Y-103210547D01*
X157080375Y-103423019D01*
X157208144Y-103614238D01*
X157370762Y-103776856D01*
X157561981Y-103904625D01*
X157774453Y-103992634D01*
X158000011Y-104037500D01*
X158229989Y-104037500D01*
X158433748Y-103996970D01*
X159037949Y-104601172D01*
X159037954Y-104601176D01*
X159501034Y-105064257D01*
X159518933Y-105086067D01*
X159605955Y-105157484D01*
X159705238Y-105210552D01*
X159812966Y-105243231D01*
X159896926Y-105251500D01*
X159896927Y-105251500D01*
X159924999Y-105254265D01*
X159953071Y-105251500D01*
X166892418Y-105251500D01*
X166987564Y-105367436D01*
X167134885Y-105488339D01*
X167302962Y-105578178D01*
X167485337Y-105633501D01*
X167627473Y-105647500D01*
X168922527Y-105647500D01*
X169064663Y-105633501D01*
X169247038Y-105578178D01*
X169415115Y-105488339D01*
X169562436Y-105367436D01*
X169683339Y-105220115D01*
X169773178Y-105052038D01*
X169828501Y-104869663D01*
X169847181Y-104680000D01*
X169828501Y-104490337D01*
X169773178Y-104307962D01*
X169683339Y-104139885D01*
X169562436Y-103992564D01*
X169415115Y-103871661D01*
X169247038Y-103781822D01*
X169064663Y-103726499D01*
X168922527Y-103712500D01*
X167627473Y-103712500D01*
X167485337Y-103726499D01*
X167302962Y-103781822D01*
X167134885Y-103871661D01*
X166987564Y-103992564D01*
X166892418Y-104108500D01*
X160161723Y-104108500D01*
X160092259Y-104039036D01*
X161255000Y-104039036D01*
X161366013Y-104028102D01*
X161472761Y-103995721D01*
X161571139Y-103943136D01*
X161657369Y-103872369D01*
X161728136Y-103786139D01*
X161780721Y-103687761D01*
X161813102Y-103581013D01*
X161824036Y-103470000D01*
X161824036Y-102270000D01*
X161813102Y-102158987D01*
X161780721Y-102052239D01*
X161728136Y-101953861D01*
X161657369Y-101867631D01*
X161571139Y-101796864D01*
X161472761Y-101744279D01*
X161366013Y-101711898D01*
X161255000Y-101700964D01*
X160055000Y-101700964D01*
X159943987Y-101711898D01*
X159837239Y-101744279D01*
X159797915Y-101765298D01*
X159333747Y-101301130D01*
X159319829Y-101284171D01*
X159252145Y-101228624D01*
X159174926Y-101187349D01*
X159091137Y-101161932D01*
X159025830Y-101155500D01*
X159025820Y-101155500D01*
X159004000Y-101153351D01*
X158982180Y-101155500D01*
X158940594Y-101155500D01*
X159021856Y-101074238D01*
X159149625Y-100883019D01*
X159237634Y-100670547D01*
X159282500Y-100444989D01*
X159282500Y-100215011D01*
X159487500Y-100215011D01*
X159487500Y-100444989D01*
X159532366Y-100670547D01*
X159620375Y-100883019D01*
X159748144Y-101074238D01*
X159910762Y-101236856D01*
X160101981Y-101364625D01*
X160314453Y-101452634D01*
X160540011Y-101497500D01*
X160769989Y-101497500D01*
X160995547Y-101452634D01*
X161208019Y-101364625D01*
X161399238Y-101236856D01*
X161561856Y-101074238D01*
X161689625Y-100883019D01*
X161777634Y-100670547D01*
X161795644Y-100580000D01*
X166201368Y-100580000D01*
X166225840Y-100828473D01*
X166298317Y-101067398D01*
X166416014Y-101287592D01*
X166574406Y-101480594D01*
X166767408Y-101638986D01*
X166987602Y-101756683D01*
X167218790Y-101826813D01*
X167134885Y-101871661D01*
X166987564Y-101992564D01*
X166866661Y-102139885D01*
X166776822Y-102307962D01*
X166721499Y-102490337D01*
X166702819Y-102680000D01*
X166721499Y-102869663D01*
X166776822Y-103052038D01*
X166866661Y-103220115D01*
X166987564Y-103367436D01*
X167134885Y-103488339D01*
X167302962Y-103578178D01*
X167485337Y-103633501D01*
X167627473Y-103647500D01*
X168922527Y-103647500D01*
X169064663Y-103633501D01*
X169247038Y-103578178D01*
X169415115Y-103488339D01*
X169562436Y-103367436D01*
X169683339Y-103220115D01*
X169773178Y-103052038D01*
X169828501Y-102869663D01*
X169847181Y-102680000D01*
X169828501Y-102490337D01*
X169773178Y-102307962D01*
X169683339Y-102139885D01*
X169562436Y-101992564D01*
X169415115Y-101871661D01*
X169331210Y-101826813D01*
X169562398Y-101756683D01*
X169782592Y-101638986D01*
X169975594Y-101480594D01*
X170133986Y-101287592D01*
X170251683Y-101067398D01*
X170324160Y-100828473D01*
X170348632Y-100580000D01*
X170324160Y-100331527D01*
X170251683Y-100092602D01*
X170133986Y-99872408D01*
X169975594Y-99679406D01*
X169782592Y-99521014D01*
X169562398Y-99403317D01*
X169323473Y-99330840D01*
X169137260Y-99312500D01*
X167412740Y-99312500D01*
X167226527Y-99330840D01*
X166987602Y-99403317D01*
X166767408Y-99521014D01*
X166574406Y-99679406D01*
X166416014Y-99872408D01*
X166298317Y-100092602D01*
X166225840Y-100331527D01*
X166201368Y-100580000D01*
X161795644Y-100580000D01*
X161822500Y-100444989D01*
X161822500Y-100215011D01*
X161777634Y-99989453D01*
X161689625Y-99776981D01*
X161561856Y-99585762D01*
X161399238Y-99423144D01*
X161208019Y-99295375D01*
X160995547Y-99207366D01*
X160769989Y-99162500D01*
X160540011Y-99162500D01*
X160314453Y-99207366D01*
X160101981Y-99295375D01*
X159910762Y-99423144D01*
X159748144Y-99585762D01*
X159620375Y-99776981D01*
X159532366Y-99989453D01*
X159487500Y-100215011D01*
X159282500Y-100215011D01*
X159237634Y-99989453D01*
X159149625Y-99776981D01*
X159021856Y-99585762D01*
X158859238Y-99423144D01*
X158668019Y-99295375D01*
X158455547Y-99207366D01*
X158229989Y-99162500D01*
X158000011Y-99162500D01*
X157774453Y-99207366D01*
X157561981Y-99295375D01*
X157370762Y-99423144D01*
X157208144Y-99585762D01*
X157080375Y-99776981D01*
X156992366Y-99989453D01*
X156947500Y-100215011D01*
X156947500Y-100444989D01*
X156992366Y-100670547D01*
X157080375Y-100883019D01*
X157208144Y-101074238D01*
X157289406Y-101155500D01*
X150939575Y-101155500D01*
X150894625Y-101046981D01*
X150766856Y-100855762D01*
X150604238Y-100693144D01*
X150413019Y-100565375D01*
X150200547Y-100477366D01*
X149974989Y-100432500D01*
X149745011Y-100432500D01*
X149519453Y-100477366D01*
X149306981Y-100565375D01*
X149115762Y-100693144D01*
X148957500Y-100851406D01*
X148957500Y-99808594D01*
X149115762Y-99966856D01*
X149306981Y-100094625D01*
X149519453Y-100182634D01*
X149745011Y-100227500D01*
X149974989Y-100227500D01*
X150200547Y-100182634D01*
X150413019Y-100094625D01*
X150604238Y-99966856D01*
X150766856Y-99804238D01*
X150894625Y-99613019D01*
X150982634Y-99400547D01*
X151027500Y-99174989D01*
X151027500Y-98945011D01*
X150982634Y-98719453D01*
X150928966Y-98589886D01*
X157368995Y-98589886D01*
X157456628Y-98760991D01*
X157658710Y-98870776D01*
X157878326Y-98939027D01*
X158107037Y-98963122D01*
X158336055Y-98942134D01*
X158556578Y-98876870D01*
X158760130Y-98769839D01*
X158773372Y-98760991D01*
X158861005Y-98589886D01*
X158115000Y-97843882D01*
X157368995Y-98589886D01*
X150928966Y-98589886D01*
X150894625Y-98506981D01*
X150766856Y-98315762D01*
X150604238Y-98153144D01*
X150413019Y-98025375D01*
X150200547Y-97937366D01*
X149974989Y-97892500D01*
X149745011Y-97892500D01*
X149519453Y-97937366D01*
X149306981Y-98025375D01*
X149115762Y-98153144D01*
X148957500Y-98311406D01*
X148957500Y-97782037D01*
X156941878Y-97782037D01*
X156962866Y-98011055D01*
X157028130Y-98231578D01*
X157135161Y-98435130D01*
X157144009Y-98448372D01*
X157315114Y-98536005D01*
X158061118Y-97790000D01*
X158168882Y-97790000D01*
X158914886Y-98536005D01*
X159085991Y-98448372D01*
X159195776Y-98246290D01*
X159264027Y-98026674D01*
X159288122Y-97797963D01*
X159276855Y-97675011D01*
X159487500Y-97675011D01*
X159487500Y-97904989D01*
X159532366Y-98130547D01*
X159620375Y-98343019D01*
X159748144Y-98534238D01*
X159910762Y-98696856D01*
X160101981Y-98824625D01*
X160314453Y-98912634D01*
X160540011Y-98957500D01*
X160769989Y-98957500D01*
X160995547Y-98912634D01*
X161208019Y-98824625D01*
X161399238Y-98696856D01*
X161561856Y-98534238D01*
X161689625Y-98343019D01*
X161777634Y-98130547D01*
X161822500Y-97904989D01*
X161822500Y-97675011D01*
X161777634Y-97449453D01*
X161689625Y-97236981D01*
X161561856Y-97045762D01*
X161399238Y-96883144D01*
X161208019Y-96755375D01*
X160995547Y-96667366D01*
X160769989Y-96622500D01*
X160540011Y-96622500D01*
X160314453Y-96667366D01*
X160101981Y-96755375D01*
X159910762Y-96883144D01*
X159748144Y-97045762D01*
X159620375Y-97236981D01*
X159532366Y-97449453D01*
X159487500Y-97675011D01*
X159276855Y-97675011D01*
X159267134Y-97568945D01*
X159201870Y-97348422D01*
X159094839Y-97144870D01*
X159085991Y-97131628D01*
X158914886Y-97043995D01*
X158168882Y-97790000D01*
X158061118Y-97790000D01*
X157315114Y-97043995D01*
X157144009Y-97131628D01*
X157034224Y-97333710D01*
X156965973Y-97553326D01*
X156941878Y-97782037D01*
X148957500Y-97782037D01*
X148957500Y-97683865D01*
X149010000Y-97689036D01*
X150710000Y-97689036D01*
X150772241Y-97682906D01*
X150832090Y-97664751D01*
X150887247Y-97635269D01*
X150935593Y-97595593D01*
X150975269Y-97547247D01*
X151004751Y-97492090D01*
X151022906Y-97432241D01*
X151029036Y-97370000D01*
X151029036Y-96990114D01*
X157368995Y-96990114D01*
X158115000Y-97736118D01*
X158861005Y-96990114D01*
X158773372Y-96819009D01*
X158571290Y-96709224D01*
X158351674Y-96640973D01*
X158122963Y-96616878D01*
X157893945Y-96637866D01*
X157673422Y-96703130D01*
X157469870Y-96810161D01*
X157456628Y-96819009D01*
X157368995Y-96990114D01*
X151029036Y-96990114D01*
X151029036Y-95670000D01*
X151023865Y-95617500D01*
X154286949Y-95617500D01*
X154305000Y-95619278D01*
X154323051Y-95617500D01*
X154377043Y-95612182D01*
X154446317Y-95591168D01*
X154510160Y-95557043D01*
X154566119Y-95511119D01*
X154612043Y-95455160D01*
X154646168Y-95391317D01*
X154667182Y-95322043D01*
X154674278Y-95250000D01*
X154672500Y-95231949D01*
X154672500Y-95149785D01*
X165352500Y-95149785D01*
X165352500Y-95350215D01*
X165391602Y-95546794D01*
X165468303Y-95731967D01*
X165579656Y-95898618D01*
X165721382Y-96040344D01*
X165888033Y-96151697D01*
X166073206Y-96228398D01*
X166269785Y-96267500D01*
X166470215Y-96267500D01*
X166666794Y-96228398D01*
X166851967Y-96151697D01*
X167018618Y-96040344D01*
X167160344Y-95898618D01*
X167271697Y-95731967D01*
X167348398Y-95546794D01*
X167387500Y-95350215D01*
X167387500Y-95149785D01*
X167348398Y-94953206D01*
X167271697Y-94768033D01*
X167160344Y-94601382D01*
X167018618Y-94459656D01*
X166851967Y-94348303D01*
X166666794Y-94271602D01*
X166470215Y-94232500D01*
X166269785Y-94232500D01*
X166073206Y-94271602D01*
X165888033Y-94348303D01*
X165721382Y-94459656D01*
X165579656Y-94601382D01*
X165468303Y-94768033D01*
X165391602Y-94953206D01*
X165352500Y-95149785D01*
X154672500Y-95149785D01*
X154672500Y-92086000D01*
X165403735Y-92086000D01*
X165414769Y-92198034D01*
X165447448Y-92305762D01*
X165500516Y-92405045D01*
X165571933Y-92492067D01*
X165658955Y-92563484D01*
X165758238Y-92616552D01*
X165865966Y-92649231D01*
X165978000Y-92660265D01*
X166544625Y-92657500D01*
X166687500Y-92514625D01*
X166687500Y-91376500D01*
X165549375Y-91376500D01*
X165406500Y-91519375D01*
X165403735Y-92086000D01*
X154672500Y-92086000D01*
X154672500Y-89267500D01*
X156316135Y-89267500D01*
X156310964Y-89320000D01*
%TA.AperFunction,Conductor*%
D24*
G36*
X156310964Y-89320000D02*
G01*
X156310964Y-91020000D01*
X156317094Y-91082241D01*
X156335249Y-91142090D01*
X156364731Y-91197247D01*
X156404407Y-91245593D01*
X156452753Y-91285269D01*
X156507910Y-91314751D01*
X156567759Y-91332906D01*
X156630000Y-91339036D01*
X158330000Y-91339036D01*
X158392241Y-91332906D01*
X158452090Y-91314751D01*
X158507247Y-91285269D01*
X158555593Y-91245593D01*
X158595269Y-91197247D01*
X158624751Y-91142090D01*
X158642906Y-91082241D01*
X158649036Y-91020000D01*
X158649036Y-90360502D01*
X158754189Y-90360502D01*
X158658459Y-90578522D01*
X158764319Y-90836296D01*
X158918434Y-91068465D01*
X159114882Y-91266106D01*
X159346113Y-91421624D01*
X159603241Y-91529043D01*
X159611480Y-91531533D01*
X159829500Y-91434354D01*
X159829500Y-90360500D01*
X160210500Y-90360500D01*
X160210500Y-91434354D01*
X160428520Y-91531533D01*
X160436759Y-91529043D01*
X160693887Y-91421624D01*
X160925118Y-91266106D01*
X161121566Y-91068465D01*
X161275681Y-90836296D01*
X161381541Y-90578522D01*
X161285810Y-90360500D01*
X160210500Y-90360500D01*
X159829500Y-90360500D01*
X159809500Y-90360500D01*
X159809500Y-90286000D01*
X165403735Y-90286000D01*
X165406500Y-90852625D01*
X165549375Y-90995500D01*
X166687500Y-90995500D01*
X166687500Y-89857375D01*
X166544625Y-89714500D01*
X165978000Y-89711735D01*
X165865966Y-89722769D01*
X165758238Y-89755448D01*
X165658955Y-89808516D01*
X165571933Y-89879933D01*
X165500516Y-89966955D01*
X165447448Y-90066238D01*
X165414769Y-90173966D01*
X165403735Y-90286000D01*
X159809500Y-90286000D01*
X159809500Y-89979500D01*
X159829500Y-89979500D01*
X159829500Y-89959500D01*
X160210500Y-89959500D01*
X160210500Y-89979500D01*
X161285810Y-89979500D01*
X161381541Y-89761478D01*
X161275681Y-89503704D01*
X161121566Y-89271535D01*
X161117555Y-89267500D01*
X170447500Y-89267500D01*
X170447500Y-90535313D01*
X170363694Y-90409889D01*
X170194111Y-90240306D01*
X169994703Y-90107065D01*
X169773132Y-90015288D01*
X169537913Y-89968500D01*
X169298087Y-89968500D01*
X169062868Y-90015288D01*
X168841297Y-90107065D01*
X168641889Y-90240306D01*
X168472306Y-90409889D01*
X168350773Y-90591775D01*
X168352265Y-90286000D01*
X168341231Y-90173966D01*
X168308552Y-90066238D01*
X168255484Y-89966955D01*
X168184067Y-89879933D01*
X168097045Y-89808516D01*
X167997762Y-89755448D01*
X167890034Y-89722769D01*
X167778000Y-89711735D01*
X167211375Y-89714500D01*
X167068500Y-89857375D01*
X167068500Y-90995500D01*
X167088500Y-90995500D01*
X167088500Y-91376500D01*
X167068500Y-91376500D01*
X167068500Y-92514625D01*
X167211375Y-92657500D01*
X167778000Y-92660265D01*
X167890034Y-92649231D01*
X167997762Y-92616552D01*
X168097045Y-92563484D01*
X168184067Y-92492067D01*
X168255484Y-92405045D01*
X168308552Y-92305762D01*
X168341231Y-92198034D01*
X168352265Y-92086000D01*
X168350773Y-91780225D01*
X168472306Y-91962111D01*
X168641889Y-92131694D01*
X168841297Y-92264935D01*
X168973501Y-92319695D01*
X168973500Y-94232500D01*
X168809785Y-94232500D01*
X168613206Y-94271602D01*
X168428033Y-94348303D01*
X168261382Y-94459656D01*
X168119656Y-94601382D01*
X168008303Y-94768033D01*
X167931602Y-94953206D01*
X167892500Y-95149785D01*
X167892500Y-95350215D01*
X167931602Y-95546794D01*
X168008303Y-95731967D01*
X168119656Y-95898618D01*
X168261382Y-96040344D01*
X168428033Y-96151697D01*
X168613206Y-96228398D01*
X168809785Y-96267500D01*
X169010215Y-96267500D01*
X169206794Y-96228398D01*
X169391967Y-96151697D01*
X169558618Y-96040344D01*
X169700344Y-95898618D01*
X169811697Y-95731967D01*
X169888398Y-95546794D01*
X169927500Y-95350215D01*
X169927500Y-95149785D01*
X169888398Y-94953206D01*
X169848010Y-94855701D01*
X169856068Y-94829137D01*
X169862500Y-94763830D01*
X169862500Y-94763821D01*
X169864649Y-94742001D01*
X169862500Y-94720181D01*
X169862500Y-92319695D01*
X169994703Y-92264935D01*
X170194111Y-92131694D01*
X170363694Y-91962111D01*
X170447500Y-91836687D01*
X170447501Y-111392500D01*
X161117555Y-111392500D01*
X161121566Y-111388465D01*
X161275681Y-111156296D01*
X161381541Y-110898522D01*
X161285810Y-110680500D01*
X160210500Y-110680500D01*
X160210500Y-110700500D01*
X159829500Y-110700500D01*
X159829500Y-110680500D01*
X159809500Y-110680500D01*
X159809500Y-110299500D01*
X159829500Y-110299500D01*
X159829500Y-109225646D01*
X160210500Y-109225646D01*
X160210500Y-110299500D01*
X161285810Y-110299500D01*
X161381541Y-110081478D01*
X161275681Y-109823704D01*
X161121566Y-109591535D01*
X160925118Y-109393894D01*
X160693887Y-109238376D01*
X160436759Y-109130957D01*
X160428520Y-109128467D01*
X160210500Y-109225646D01*
X159829500Y-109225646D01*
X159611480Y-109128467D01*
X159603241Y-109130957D01*
X159346113Y-109238376D01*
X159114882Y-109393894D01*
X158918434Y-109591535D01*
X158764319Y-109823704D01*
X158658459Y-110081478D01*
X158754189Y-110299498D01*
X158649036Y-110299498D01*
X158649036Y-109640000D01*
X158642906Y-109577759D01*
X158624751Y-109517910D01*
X158595269Y-109462753D01*
X158555593Y-109414407D01*
X158507247Y-109374731D01*
X158452090Y-109345249D01*
X158392241Y-109327094D01*
X158330000Y-109320964D01*
X156630000Y-109320964D01*
X156567759Y-109327094D01*
X156507910Y-109345249D01*
X156452753Y-109374731D01*
X156404407Y-109414407D01*
X156364731Y-109462753D01*
X156335249Y-109517910D01*
X156317094Y-109577759D01*
X156310964Y-109640000D01*
X156310964Y-111340000D01*
X156316135Y-111392500D01*
X154672500Y-111392500D01*
X154672500Y-108780000D01*
X166201368Y-108780000D01*
X166225840Y-109028473D01*
X166298317Y-109267398D01*
X166416014Y-109487592D01*
X166574406Y-109680594D01*
X166767408Y-109838986D01*
X166987602Y-109956683D01*
X167226527Y-110029160D01*
X167412740Y-110047500D01*
X169137260Y-110047500D01*
X169323473Y-110029160D01*
X169562398Y-109956683D01*
X169782592Y-109838986D01*
X169975594Y-109680594D01*
X170133986Y-109487592D01*
X170251683Y-109267398D01*
X170324160Y-109028473D01*
X170348632Y-108780000D01*
X170324160Y-108531527D01*
X170251683Y-108292602D01*
X170133986Y-108072408D01*
X169975594Y-107879406D01*
X169782592Y-107721014D01*
X169618642Y-107633380D01*
X169647090Y-107624751D01*
X169702247Y-107595269D01*
X169750593Y-107555593D01*
X169790269Y-107507247D01*
X169819751Y-107452090D01*
X169837906Y-107392241D01*
X169844036Y-107330000D01*
X169844036Y-106030000D01*
X169837906Y-105967759D01*
X169819751Y-105907910D01*
X169790269Y-105852753D01*
X169750593Y-105804407D01*
X169702247Y-105764731D01*
X169647090Y-105735249D01*
X169587241Y-105717094D01*
X169525000Y-105710964D01*
X167025000Y-105710964D01*
X166962759Y-105717094D01*
X166902910Y-105735249D01*
X166847753Y-105764731D01*
X166799407Y-105804407D01*
X166759731Y-105852753D01*
X166730249Y-105907910D01*
X166712094Y-105967759D01*
X166705964Y-106030000D01*
X166705964Y-107330000D01*
X166712094Y-107392241D01*
X166730249Y-107452090D01*
X166759731Y-107507247D01*
X166799407Y-107555593D01*
X166847753Y-107595269D01*
X166902910Y-107624751D01*
X166931358Y-107633380D01*
X166767408Y-107721014D01*
X166574406Y-107879406D01*
X166416014Y-108072408D01*
X166298317Y-108292602D01*
X166225840Y-108531527D01*
X166201368Y-108780000D01*
X154672500Y-108780000D01*
X154672500Y-105428050D01*
X154674278Y-105410000D01*
X154667182Y-105337957D01*
X154646168Y-105268683D01*
X154612043Y-105204840D01*
X154566119Y-105148881D01*
X154510160Y-105102957D01*
X154446317Y-105068832D01*
X154377043Y-105047818D01*
X154323051Y-105042500D01*
X154305000Y-105040722D01*
X154286949Y-105042500D01*
X150608594Y-105042500D01*
X150766856Y-104884238D01*
X150894625Y-104693019D01*
X150982634Y-104480547D01*
X151027500Y-104254989D01*
X151027500Y-104025011D01*
X150982634Y-103799453D01*
X150894625Y-103586981D01*
X150766856Y-103395762D01*
X150604238Y-103233144D01*
X150413019Y-103105375D01*
X150200547Y-103017366D01*
X149974989Y-102972500D01*
X149745011Y-102972500D01*
X149519453Y-103017366D01*
X149306981Y-103105375D01*
X149115762Y-103233144D01*
X148957500Y-103391406D01*
X148957500Y-102348594D01*
X149115762Y-102506856D01*
X149306981Y-102634625D01*
X149519453Y-102722634D01*
X149745011Y-102767500D01*
X149974989Y-102767500D01*
X150200547Y-102722634D01*
X150413019Y-102634625D01*
X150604238Y-102506856D01*
X150766856Y-102344238D01*
X150894625Y-102153019D01*
X150939575Y-102044500D01*
X157289406Y-102044500D01*
X157208144Y-102125762D01*
X157080375Y-102316981D01*
X156992366Y-102529453D01*
X156947500Y-102755011D01*
X156947500Y-102984989D01*
X156992366Y-103210547D01*
X157080375Y-103423019D01*
X157208144Y-103614238D01*
X157370762Y-103776856D01*
X157561981Y-103904625D01*
X157774453Y-103992634D01*
X158000011Y-104037500D01*
X158229989Y-104037500D01*
X158433748Y-103996970D01*
X159037949Y-104601172D01*
X159037954Y-104601176D01*
X159501034Y-105064257D01*
X159518933Y-105086067D01*
X159605955Y-105157484D01*
X159705238Y-105210552D01*
X159812966Y-105243231D01*
X159896926Y-105251500D01*
X159896927Y-105251500D01*
X159924999Y-105254265D01*
X159953071Y-105251500D01*
X166892418Y-105251500D01*
X166987564Y-105367436D01*
X167134885Y-105488339D01*
X167302962Y-105578178D01*
X167485337Y-105633501D01*
X167627473Y-105647500D01*
X168922527Y-105647500D01*
X169064663Y-105633501D01*
X169247038Y-105578178D01*
X169415115Y-105488339D01*
X169562436Y-105367436D01*
X169683339Y-105220115D01*
X169773178Y-105052038D01*
X169828501Y-104869663D01*
X169847181Y-104680000D01*
X169828501Y-104490337D01*
X169773178Y-104307962D01*
X169683339Y-104139885D01*
X169562436Y-103992564D01*
X169415115Y-103871661D01*
X169247038Y-103781822D01*
X169064663Y-103726499D01*
X168922527Y-103712500D01*
X167627473Y-103712500D01*
X167485337Y-103726499D01*
X167302962Y-103781822D01*
X167134885Y-103871661D01*
X166987564Y-103992564D01*
X166892418Y-104108500D01*
X160161723Y-104108500D01*
X160092259Y-104039036D01*
X161255000Y-104039036D01*
X161366013Y-104028102D01*
X161472761Y-103995721D01*
X161571139Y-103943136D01*
X161657369Y-103872369D01*
X161728136Y-103786139D01*
X161780721Y-103687761D01*
X161813102Y-103581013D01*
X161824036Y-103470000D01*
X161824036Y-102270000D01*
X161813102Y-102158987D01*
X161780721Y-102052239D01*
X161728136Y-101953861D01*
X161657369Y-101867631D01*
X161571139Y-101796864D01*
X161472761Y-101744279D01*
X161366013Y-101711898D01*
X161255000Y-101700964D01*
X160055000Y-101700964D01*
X159943987Y-101711898D01*
X159837239Y-101744279D01*
X159797915Y-101765298D01*
X159333747Y-101301130D01*
X159319829Y-101284171D01*
X159252145Y-101228624D01*
X159174926Y-101187349D01*
X159091137Y-101161932D01*
X159025830Y-101155500D01*
X159025820Y-101155500D01*
X159004000Y-101153351D01*
X158982180Y-101155500D01*
X158940594Y-101155500D01*
X159021856Y-101074238D01*
X159149625Y-100883019D01*
X159237634Y-100670547D01*
X159282500Y-100444989D01*
X159282500Y-100215011D01*
X159487500Y-100215011D01*
X159487500Y-100444989D01*
X159532366Y-100670547D01*
X159620375Y-100883019D01*
X159748144Y-101074238D01*
X159910762Y-101236856D01*
X160101981Y-101364625D01*
X160314453Y-101452634D01*
X160540011Y-101497500D01*
X160769989Y-101497500D01*
X160995547Y-101452634D01*
X161208019Y-101364625D01*
X161399238Y-101236856D01*
X161561856Y-101074238D01*
X161689625Y-100883019D01*
X161777634Y-100670547D01*
X161795644Y-100580000D01*
X166201368Y-100580000D01*
X166225840Y-100828473D01*
X166298317Y-101067398D01*
X166416014Y-101287592D01*
X166574406Y-101480594D01*
X166767408Y-101638986D01*
X166987602Y-101756683D01*
X167218790Y-101826813D01*
X167134885Y-101871661D01*
X166987564Y-101992564D01*
X166866661Y-102139885D01*
X166776822Y-102307962D01*
X166721499Y-102490337D01*
X166702819Y-102680000D01*
X166721499Y-102869663D01*
X166776822Y-103052038D01*
X166866661Y-103220115D01*
X166987564Y-103367436D01*
X167134885Y-103488339D01*
X167302962Y-103578178D01*
X167485337Y-103633501D01*
X167627473Y-103647500D01*
X168922527Y-103647500D01*
X169064663Y-103633501D01*
X169247038Y-103578178D01*
X169415115Y-103488339D01*
X169562436Y-103367436D01*
X169683339Y-103220115D01*
X169773178Y-103052038D01*
X169828501Y-102869663D01*
X169847181Y-102680000D01*
X169828501Y-102490337D01*
X169773178Y-102307962D01*
X169683339Y-102139885D01*
X169562436Y-101992564D01*
X169415115Y-101871661D01*
X169331210Y-101826813D01*
X169562398Y-101756683D01*
X169782592Y-101638986D01*
X169975594Y-101480594D01*
X170133986Y-101287592D01*
X170251683Y-101067398D01*
X170324160Y-100828473D01*
X170348632Y-100580000D01*
X170324160Y-100331527D01*
X170251683Y-100092602D01*
X170133986Y-99872408D01*
X169975594Y-99679406D01*
X169782592Y-99521014D01*
X169562398Y-99403317D01*
X169323473Y-99330840D01*
X169137260Y-99312500D01*
X167412740Y-99312500D01*
X167226527Y-99330840D01*
X166987602Y-99403317D01*
X166767408Y-99521014D01*
X166574406Y-99679406D01*
X166416014Y-99872408D01*
X166298317Y-100092602D01*
X166225840Y-100331527D01*
X166201368Y-100580000D01*
X161795644Y-100580000D01*
X161822500Y-100444989D01*
X161822500Y-100215011D01*
X161777634Y-99989453D01*
X161689625Y-99776981D01*
X161561856Y-99585762D01*
X161399238Y-99423144D01*
X161208019Y-99295375D01*
X160995547Y-99207366D01*
X160769989Y-99162500D01*
X160540011Y-99162500D01*
X160314453Y-99207366D01*
X160101981Y-99295375D01*
X159910762Y-99423144D01*
X159748144Y-99585762D01*
X159620375Y-99776981D01*
X159532366Y-99989453D01*
X159487500Y-100215011D01*
X159282500Y-100215011D01*
X159237634Y-99989453D01*
X159149625Y-99776981D01*
X159021856Y-99585762D01*
X158859238Y-99423144D01*
X158668019Y-99295375D01*
X158455547Y-99207366D01*
X158229989Y-99162500D01*
X158000011Y-99162500D01*
X157774453Y-99207366D01*
X157561981Y-99295375D01*
X157370762Y-99423144D01*
X157208144Y-99585762D01*
X157080375Y-99776981D01*
X156992366Y-99989453D01*
X156947500Y-100215011D01*
X156947500Y-100444989D01*
X156992366Y-100670547D01*
X157080375Y-100883019D01*
X157208144Y-101074238D01*
X157289406Y-101155500D01*
X150939575Y-101155500D01*
X150894625Y-101046981D01*
X150766856Y-100855762D01*
X150604238Y-100693144D01*
X150413019Y-100565375D01*
X150200547Y-100477366D01*
X149974989Y-100432500D01*
X149745011Y-100432500D01*
X149519453Y-100477366D01*
X149306981Y-100565375D01*
X149115762Y-100693144D01*
X148957500Y-100851406D01*
X148957500Y-99808594D01*
X149115762Y-99966856D01*
X149306981Y-100094625D01*
X149519453Y-100182634D01*
X149745011Y-100227500D01*
X149974989Y-100227500D01*
X150200547Y-100182634D01*
X150413019Y-100094625D01*
X150604238Y-99966856D01*
X150766856Y-99804238D01*
X150894625Y-99613019D01*
X150982634Y-99400547D01*
X151027500Y-99174989D01*
X151027500Y-98945011D01*
X150982634Y-98719453D01*
X150928966Y-98589886D01*
X157368995Y-98589886D01*
X157456628Y-98760991D01*
X157658710Y-98870776D01*
X157878326Y-98939027D01*
X158107037Y-98963122D01*
X158336055Y-98942134D01*
X158556578Y-98876870D01*
X158760130Y-98769839D01*
X158773372Y-98760991D01*
X158861005Y-98589886D01*
X158115000Y-97843882D01*
X157368995Y-98589886D01*
X150928966Y-98589886D01*
X150894625Y-98506981D01*
X150766856Y-98315762D01*
X150604238Y-98153144D01*
X150413019Y-98025375D01*
X150200547Y-97937366D01*
X149974989Y-97892500D01*
X149745011Y-97892500D01*
X149519453Y-97937366D01*
X149306981Y-98025375D01*
X149115762Y-98153144D01*
X148957500Y-98311406D01*
X148957500Y-97782037D01*
X156941878Y-97782037D01*
X156962866Y-98011055D01*
X157028130Y-98231578D01*
X157135161Y-98435130D01*
X157144009Y-98448372D01*
X157315114Y-98536005D01*
X158061118Y-97790000D01*
X158168882Y-97790000D01*
X158914886Y-98536005D01*
X159085991Y-98448372D01*
X159195776Y-98246290D01*
X159264027Y-98026674D01*
X159288122Y-97797963D01*
X159276855Y-97675011D01*
X159487500Y-97675011D01*
X159487500Y-97904989D01*
X159532366Y-98130547D01*
X159620375Y-98343019D01*
X159748144Y-98534238D01*
X159910762Y-98696856D01*
X160101981Y-98824625D01*
X160314453Y-98912634D01*
X160540011Y-98957500D01*
X160769989Y-98957500D01*
X160995547Y-98912634D01*
X161208019Y-98824625D01*
X161399238Y-98696856D01*
X161561856Y-98534238D01*
X161689625Y-98343019D01*
X161777634Y-98130547D01*
X161822500Y-97904989D01*
X161822500Y-97675011D01*
X161777634Y-97449453D01*
X161689625Y-97236981D01*
X161561856Y-97045762D01*
X161399238Y-96883144D01*
X161208019Y-96755375D01*
X160995547Y-96667366D01*
X160769989Y-96622500D01*
X160540011Y-96622500D01*
X160314453Y-96667366D01*
X160101981Y-96755375D01*
X159910762Y-96883144D01*
X159748144Y-97045762D01*
X159620375Y-97236981D01*
X159532366Y-97449453D01*
X159487500Y-97675011D01*
X159276855Y-97675011D01*
X159267134Y-97568945D01*
X159201870Y-97348422D01*
X159094839Y-97144870D01*
X159085991Y-97131628D01*
X158914886Y-97043995D01*
X158168882Y-97790000D01*
X158061118Y-97790000D01*
X157315114Y-97043995D01*
X157144009Y-97131628D01*
X157034224Y-97333710D01*
X156965973Y-97553326D01*
X156941878Y-97782037D01*
X148957500Y-97782037D01*
X148957500Y-97683865D01*
X149010000Y-97689036D01*
X150710000Y-97689036D01*
X150772241Y-97682906D01*
X150832090Y-97664751D01*
X150887247Y-97635269D01*
X150935593Y-97595593D01*
X150975269Y-97547247D01*
X151004751Y-97492090D01*
X151022906Y-97432241D01*
X151029036Y-97370000D01*
X151029036Y-96990114D01*
X157368995Y-96990114D01*
X158115000Y-97736118D01*
X158861005Y-96990114D01*
X158773372Y-96819009D01*
X158571290Y-96709224D01*
X158351674Y-96640973D01*
X158122963Y-96616878D01*
X157893945Y-96637866D01*
X157673422Y-96703130D01*
X157469870Y-96810161D01*
X157456628Y-96819009D01*
X157368995Y-96990114D01*
X151029036Y-96990114D01*
X151029036Y-95670000D01*
X151023865Y-95617500D01*
X154286949Y-95617500D01*
X154305000Y-95619278D01*
X154323051Y-95617500D01*
X154377043Y-95612182D01*
X154446317Y-95591168D01*
X154510160Y-95557043D01*
X154566119Y-95511119D01*
X154612043Y-95455160D01*
X154646168Y-95391317D01*
X154667182Y-95322043D01*
X154674278Y-95250000D01*
X154672500Y-95231949D01*
X154672500Y-95149785D01*
X165352500Y-95149785D01*
X165352500Y-95350215D01*
X165391602Y-95546794D01*
X165468303Y-95731967D01*
X165579656Y-95898618D01*
X165721382Y-96040344D01*
X165888033Y-96151697D01*
X166073206Y-96228398D01*
X166269785Y-96267500D01*
X166470215Y-96267500D01*
X166666794Y-96228398D01*
X166851967Y-96151697D01*
X167018618Y-96040344D01*
X167160344Y-95898618D01*
X167271697Y-95731967D01*
X167348398Y-95546794D01*
X167387500Y-95350215D01*
X167387500Y-95149785D01*
X167348398Y-94953206D01*
X167271697Y-94768033D01*
X167160344Y-94601382D01*
X167018618Y-94459656D01*
X166851967Y-94348303D01*
X166666794Y-94271602D01*
X166470215Y-94232500D01*
X166269785Y-94232500D01*
X166073206Y-94271602D01*
X165888033Y-94348303D01*
X165721382Y-94459656D01*
X165579656Y-94601382D01*
X165468303Y-94768033D01*
X165391602Y-94953206D01*
X165352500Y-95149785D01*
X154672500Y-95149785D01*
X154672500Y-92086000D01*
X165403735Y-92086000D01*
X165414769Y-92198034D01*
X165447448Y-92305762D01*
X165500516Y-92405045D01*
X165571933Y-92492067D01*
X165658955Y-92563484D01*
X165758238Y-92616552D01*
X165865966Y-92649231D01*
X165978000Y-92660265D01*
X166544625Y-92657500D01*
X166687500Y-92514625D01*
X166687500Y-91376500D01*
X165549375Y-91376500D01*
X165406500Y-91519375D01*
X165403735Y-92086000D01*
X154672500Y-92086000D01*
X154672500Y-89267500D01*
X156316135Y-89267500D01*
X156310964Y-89320000D01*
G37*
%TD.AperFunction*%
%TD*%
M02*
