%TF.GenerationSoftware,KiCad,Pcbnew,(5.1.8)-1*%
%TF.CreationDate,2021-11-16T13:30:18-08:00*%
%TF.ProjectId,ISPwPower,49535077-506f-4776-9572-2e6b69636164,rev?*%
%TF.SameCoordinates,Original*%
%TF.FileFunction,Copper,L1,Top*%
%TF.FilePolarity,Positive*%
%FSLAX46Y46*%
G04 Gerber Fmt 4.6, Leading zero omitted, Abs format (unit mm)*
G04 Created by KiCad (PCBNEW (5.1.8)-1) date 2021-11-16 13:30:18*
%MOMM*%
%LPD*%
G01*
G04 APERTURE LIST*
%TA.AperFunction,ComponentPad*%
%ADD10O,1.400000X1.400000*%
%TD*%
%TA.AperFunction,ComponentPad*%
%ADD11C,1.400000*%
%TD*%
%TA.AperFunction,ComponentPad*%
%ADD12R,1.700000X1.700000*%
%TD*%
%TA.AperFunction,ComponentPad*%
%ADD13O,1.700000X1.700000*%
%TD*%
%TA.AperFunction,ComponentPad*%
%ADD14R,1.800000X1.800000*%
%TD*%
%TA.AperFunction,ComponentPad*%
%ADD15C,1.800000*%
%TD*%
%TA.AperFunction,ComponentPad*%
%ADD16C,1.700000*%
%TD*%
%TA.AperFunction,ComponentPad*%
%ADD17R,2.500000X1.300000*%
%TD*%
%TA.AperFunction,ComponentPad*%
%ADD18O,2.500000X1.300000*%
%TD*%
%TA.AperFunction,ComponentPad*%
%ADD19O,3.500001X1.900000*%
%TD*%
%TA.AperFunction,ViaPad*%
%ADD20C,1.270000*%
%TD*%
%TA.AperFunction,Conductor*%
%ADD21C,0.254000*%
%TD*%
%TA.AperFunction,Conductor*%
%ADD22C,0.508000*%
%TD*%
%TA.AperFunction,Conductor*%
%ADD23C,0.177800*%
%TD*%
%TA.AperFunction,Conductor*%
%ADD24C,0.100000*%
%TD*%
G04 APERTURE END LIST*
D10*
%TO.P,R1,2*%
%TO.N,Net-(D1-Pad2)*%
X168910000Y-95250000D03*
D11*
%TO.P,R1,1*%
%TO.N,/Vin*%
X166370000Y-95250000D03*
%TD*%
D12*
%TO.P,J4,1*%
%TO.N,/RES*%
X149860000Y-96520000D03*
D13*
%TO.P,J4,2*%
%TO.N,/SCK*%
X149860000Y-99060000D03*
%TO.P,J4,3*%
%TO.N,/MISO*%
X149860000Y-101600000D03*
%TO.P,J4,4*%
%TO.N,/MOSI*%
X149860000Y-104140000D03*
%TD*%
D12*
%TO.P,J3,1*%
%TO.N,/Vin*%
X157480000Y-110490000D03*
D13*
%TO.P,J3,2*%
%TO.N,GND*%
X160020000Y-110490000D03*
%TD*%
D12*
%TO.P,J2,1*%
%TO.N,/Vin*%
X157480000Y-90170000D03*
D13*
%TO.P,J2,2*%
%TO.N,GND*%
X160020000Y-90170000D03*
%TD*%
D14*
%TO.P,D1,1*%
%TO.N,GND*%
X166878000Y-91186000D03*
D15*
%TO.P,D1,2*%
%TO.N,Net-(D1-Pad2)*%
X169418000Y-91186000D03*
%TD*%
D16*
%TO.P,J1,6*%
%TO.N,GND*%
X158115000Y-97790000D03*
%TO.P,J1,4*%
%TO.N,/MOSI*%
X158115000Y-100330000D03*
%TO.P,J1,2*%
%TO.N,+V*%
X158115000Y-102870000D03*
%TO.P,J1,5*%
%TO.N,/RES*%
X160655000Y-97790000D03*
%TO.P,J1,3*%
%TO.N,/SCK*%
X160655000Y-100330000D03*
%TO.P,J1,1*%
%TO.N,/MISO*%
%TA.AperFunction,ComponentPad*%
G36*
G01*
X161505000Y-102270000D02*
X161505000Y-103470000D01*
G75*
G02*
X161255000Y-103720000I-250000J0D01*
G01*
X160055000Y-103720000D01*
G75*
G02*
X159805000Y-103470000I0J250000D01*
G01*
X159805000Y-102270000D01*
G75*
G02*
X160055000Y-102020000I250000J0D01*
G01*
X161255000Y-102020000D01*
G75*
G02*
X161505000Y-102270000I0J-250000D01*
G01*
G37*
%TD.AperFunction*%
%TD*%
D17*
%TO.P,SW1,1*%
%TO.N,/Vin*%
X168275000Y-106680000D03*
D18*
%TO.P,SW1,2*%
%TO.N,+V*%
X168275000Y-104680000D03*
%TO.P,SW1,3*%
%TO.N,Net-(SW1-Pad3)*%
X168275000Y-102680000D03*
D19*
%TO.P,SW1,*%
%TO.N,*%
X168275000Y-108780000D03*
X168275000Y-100580000D03*
%TD*%
D20*
%TO.N,GND*%
X153035000Y-103124000D03*
%TD*%
D21*
%TO.N,/MOSI*%
X154305000Y-104140000D02*
X151130000Y-104140000D01*
X158115000Y-100330000D02*
X154305000Y-104140000D01*
X151130000Y-104140000D02*
X149860000Y-104140000D01*
%TO.N,/RES*%
X150114000Y-96266000D02*
X149860000Y-96520000D01*
X159131000Y-96266000D02*
X150114000Y-96266000D01*
X160655000Y-97790000D02*
X159131000Y-96266000D01*
%TO.N,/SCK*%
X149949799Y-99149799D02*
X149860000Y-99060000D01*
X160655000Y-100330000D02*
X159385000Y-99060000D01*
X159385000Y-99060000D02*
X149860000Y-99060000D01*
%TO.N,/MISO*%
X149670617Y-102057209D02*
X149860000Y-102057209D01*
D22*
%TO.N,/Vin*%
X157480000Y-110490000D02*
X157734000Y-110490000D01*
X157480000Y-110490000D02*
X157480000Y-109132000D01*
X159932000Y-106680000D02*
X157480000Y-109132000D01*
X168275000Y-106680000D02*
X159932000Y-106680000D01*
X167337790Y-106680000D02*
X168275000Y-106680000D01*
X166067790Y-105410000D02*
X167337790Y-106680000D01*
X166067790Y-95552210D02*
X166067790Y-105410000D01*
X166370000Y-95250000D02*
X166067790Y-95552210D01*
X157480000Y-91440000D02*
X157480000Y-90170000D01*
X161290000Y-95250000D02*
X157480000Y-91440000D01*
X166370000Y-95250000D02*
X161290000Y-95250000D01*
%TD*%
D23*
%TO.N,GND*%
X156285441Y-89320000D02*
X156285441Y-91020000D01*
X156292062Y-91087220D01*
X156311669Y-91151857D01*
X156343510Y-91211427D01*
X156386360Y-91263640D01*
X156438573Y-91306490D01*
X156498143Y-91338331D01*
X156562780Y-91357938D01*
X156630000Y-91364559D01*
X156883100Y-91364559D01*
X156883100Y-91410688D01*
X156880213Y-91440000D01*
X156883100Y-91469311D01*
X156883100Y-91469321D01*
X156891737Y-91557012D01*
X156925868Y-91669528D01*
X156981295Y-91773224D01*
X157017388Y-91817203D01*
X157055886Y-91864114D01*
X157078666Y-91882809D01*
X160847200Y-95651345D01*
X160865886Y-95674114D01*
X160888655Y-95692800D01*
X160888661Y-95692806D01*
X160951040Y-95743998D01*
X160956776Y-95748705D01*
X161060471Y-95804132D01*
X161172987Y-95838263D01*
X161260678Y-95846900D01*
X161260681Y-95846900D01*
X161290000Y-95849788D01*
X161319319Y-95846900D01*
X165470890Y-95846900D01*
X165470891Y-105380679D01*
X165468003Y-105410000D01*
X165479528Y-105527012D01*
X165513658Y-105639528D01*
X165569085Y-105743224D01*
X165624985Y-105811338D01*
X165643677Y-105834114D01*
X165666451Y-105852804D01*
X165896747Y-106083100D01*
X159961319Y-106083100D01*
X159932000Y-106080212D01*
X159902681Y-106083100D01*
X159902678Y-106083100D01*
X159814987Y-106091737D01*
X159702471Y-106125868D01*
X159598776Y-106181295D01*
X159530661Y-106237194D01*
X159530655Y-106237200D01*
X159507886Y-106255886D01*
X159489200Y-106278655D01*
X157078661Y-108689196D01*
X157055887Y-108707886D01*
X157037197Y-108730660D01*
X157037195Y-108730662D01*
X156981295Y-108798776D01*
X156925868Y-108902472D01*
X156891738Y-109014988D01*
X156880213Y-109132000D01*
X156883101Y-109161321D01*
X156883101Y-109295441D01*
X156630000Y-109295441D01*
X156562780Y-109302062D01*
X156498143Y-109321669D01*
X156438573Y-109353510D01*
X156386360Y-109396360D01*
X156343510Y-109448573D01*
X156311669Y-109508143D01*
X156292062Y-109572780D01*
X156285441Y-109640000D01*
X156285441Y-111340000D01*
X156288110Y-111367100D01*
X154697900Y-111367100D01*
X154697900Y-105429300D01*
X154699801Y-105410000D01*
X154692215Y-105332978D01*
X154669749Y-105258916D01*
X154633265Y-105190660D01*
X154584166Y-105130834D01*
X154524340Y-105081735D01*
X154456084Y-105045251D01*
X154382022Y-105022785D01*
X154324301Y-105017100D01*
X154305000Y-105015199D01*
X154285699Y-105017100D01*
X150669915Y-105017100D01*
X150786586Y-104900429D01*
X150917134Y-104705050D01*
X150956547Y-104609900D01*
X154281923Y-104609900D01*
X154305000Y-104612173D01*
X154328077Y-104609900D01*
X154397116Y-104603100D01*
X154485693Y-104576231D01*
X154567325Y-104532598D01*
X154638877Y-104473877D01*
X154653595Y-104455943D01*
X156357028Y-102752510D01*
X156922100Y-102752510D01*
X156922100Y-102987490D01*
X156967942Y-103217956D01*
X157057866Y-103435050D01*
X157188414Y-103630429D01*
X157354571Y-103796586D01*
X157549950Y-103927134D01*
X157767044Y-104017058D01*
X157997510Y-104062900D01*
X158232490Y-104062900D01*
X158462956Y-104017058D01*
X158680050Y-103927134D01*
X158875429Y-103796586D01*
X159041586Y-103630429D01*
X159172134Y-103435050D01*
X159262058Y-103217956D01*
X159307900Y-102987490D01*
X159307900Y-102752510D01*
X159262058Y-102522044D01*
X159172134Y-102304950D01*
X159148782Y-102270000D01*
X159460441Y-102270000D01*
X159460441Y-103470000D01*
X159471865Y-103585993D01*
X159505699Y-103697528D01*
X159560642Y-103800319D01*
X159634583Y-103890417D01*
X159724681Y-103964358D01*
X159827472Y-104019301D01*
X159939007Y-104053135D01*
X160055000Y-104064559D01*
X161255000Y-104064559D01*
X161370993Y-104053135D01*
X161482528Y-104019301D01*
X161585319Y-103964358D01*
X161675417Y-103890417D01*
X161749358Y-103800319D01*
X161804301Y-103697528D01*
X161838135Y-103585993D01*
X161849559Y-103470000D01*
X161849559Y-102270000D01*
X161838135Y-102154007D01*
X161804301Y-102042472D01*
X161749358Y-101939681D01*
X161675417Y-101849583D01*
X161585319Y-101775642D01*
X161482528Y-101720699D01*
X161370993Y-101686865D01*
X161255000Y-101675441D01*
X160055000Y-101675441D01*
X159939007Y-101686865D01*
X159827472Y-101720699D01*
X159724681Y-101775642D01*
X159634583Y-101849583D01*
X159560642Y-101939681D01*
X159505699Y-102042472D01*
X159471865Y-102154007D01*
X159460441Y-102270000D01*
X159148782Y-102270000D01*
X159041586Y-102109571D01*
X158875429Y-101943414D01*
X158680050Y-101812866D01*
X158462956Y-101722942D01*
X158232490Y-101677100D01*
X157997510Y-101677100D01*
X157767044Y-101722942D01*
X157549950Y-101812866D01*
X157354571Y-101943414D01*
X157188414Y-102109571D01*
X157057866Y-102304950D01*
X156967942Y-102522044D01*
X156922100Y-102752510D01*
X156357028Y-102752510D01*
X157671894Y-101437645D01*
X157767044Y-101477058D01*
X157997510Y-101522900D01*
X158232490Y-101522900D01*
X158462956Y-101477058D01*
X158680050Y-101387134D01*
X158875429Y-101256586D01*
X159041586Y-101090429D01*
X159172134Y-100895050D01*
X159262058Y-100677956D01*
X159307900Y-100447490D01*
X159307900Y-100212510D01*
X159262058Y-99982044D01*
X159172134Y-99764950D01*
X159041586Y-99569571D01*
X159001915Y-99529900D01*
X159190362Y-99529900D01*
X159547355Y-99886893D01*
X159507942Y-99982044D01*
X159462100Y-100212510D01*
X159462100Y-100447490D01*
X159507942Y-100677956D01*
X159597866Y-100895050D01*
X159728414Y-101090429D01*
X159894571Y-101256586D01*
X160089950Y-101387134D01*
X160307044Y-101477058D01*
X160537510Y-101522900D01*
X160772490Y-101522900D01*
X161002956Y-101477058D01*
X161220050Y-101387134D01*
X161415429Y-101256586D01*
X161581586Y-101090429D01*
X161712134Y-100895050D01*
X161802058Y-100677956D01*
X161847900Y-100447490D01*
X161847900Y-100212510D01*
X161802058Y-99982044D01*
X161712134Y-99764950D01*
X161581586Y-99569571D01*
X161415429Y-99403414D01*
X161220050Y-99272866D01*
X161002956Y-99182942D01*
X160772490Y-99137100D01*
X160537510Y-99137100D01*
X160307044Y-99182942D01*
X160211893Y-99222355D01*
X159733595Y-98744057D01*
X159718877Y-98726123D01*
X159647325Y-98667402D01*
X159565693Y-98623769D01*
X159477116Y-98596900D01*
X159408077Y-98590100D01*
X159385000Y-98587827D01*
X159361923Y-98590100D01*
X158933064Y-98590100D01*
X158910904Y-98567940D01*
X159092157Y-98484247D01*
X159208822Y-98280274D01*
X159283452Y-98057460D01*
X159313180Y-97824367D01*
X159296862Y-97589953D01*
X159235125Y-97363227D01*
X159130342Y-97152902D01*
X159092157Y-97095753D01*
X158910902Y-97012059D01*
X158132961Y-97790000D01*
X158147103Y-97804142D01*
X158129142Y-97822103D01*
X158115000Y-97807961D01*
X158100858Y-97822103D01*
X158082897Y-97804142D01*
X158097039Y-97790000D01*
X157319098Y-97012059D01*
X157137843Y-97095753D01*
X157021178Y-97299726D01*
X156946548Y-97522540D01*
X156916820Y-97755633D01*
X156933138Y-97990047D01*
X156994875Y-98216773D01*
X157099658Y-98427098D01*
X157137843Y-98484247D01*
X157319096Y-98567940D01*
X157296936Y-98590100D01*
X150956547Y-98590100D01*
X150917134Y-98494950D01*
X150786586Y-98299571D01*
X150620429Y-98133414D01*
X150425050Y-98002866D01*
X150207956Y-97912942D01*
X149977490Y-97867100D01*
X149742510Y-97867100D01*
X149512044Y-97912942D01*
X149294950Y-98002866D01*
X149099571Y-98133414D01*
X148982900Y-98250085D01*
X148982900Y-97711890D01*
X149010000Y-97714559D01*
X150710000Y-97714559D01*
X150777220Y-97707938D01*
X150841857Y-97688331D01*
X150901427Y-97656490D01*
X150953640Y-97613640D01*
X150996490Y-97561427D01*
X151028331Y-97501857D01*
X151047938Y-97437220D01*
X151054559Y-97370000D01*
X151054559Y-96735900D01*
X157555699Y-96735900D01*
X157477902Y-96774658D01*
X157420753Y-96812843D01*
X157337059Y-96994098D01*
X158115000Y-97772039D01*
X158892941Y-96994098D01*
X158809247Y-96812843D01*
X158674723Y-96735900D01*
X158936362Y-96735900D01*
X159547355Y-97346893D01*
X159507942Y-97442044D01*
X159462100Y-97672510D01*
X159462100Y-97907490D01*
X159507942Y-98137956D01*
X159597866Y-98355050D01*
X159728414Y-98550429D01*
X159894571Y-98716586D01*
X160089950Y-98847134D01*
X160307044Y-98937058D01*
X160537510Y-98982900D01*
X160772490Y-98982900D01*
X161002956Y-98937058D01*
X161220050Y-98847134D01*
X161415429Y-98716586D01*
X161581586Y-98550429D01*
X161712134Y-98355050D01*
X161802058Y-98137956D01*
X161847900Y-97907490D01*
X161847900Y-97672510D01*
X161802058Y-97442044D01*
X161712134Y-97224950D01*
X161581586Y-97029571D01*
X161415429Y-96863414D01*
X161220050Y-96732866D01*
X161002956Y-96642942D01*
X160772490Y-96597100D01*
X160537510Y-96597100D01*
X160307044Y-96642942D01*
X160211893Y-96682355D01*
X159479595Y-95950057D01*
X159464877Y-95932123D01*
X159393325Y-95873402D01*
X159311693Y-95829769D01*
X159223116Y-95802900D01*
X159154077Y-95796100D01*
X159131000Y-95793827D01*
X159107923Y-95796100D01*
X151054559Y-95796100D01*
X151054559Y-95670000D01*
X151051890Y-95642900D01*
X154285699Y-95642900D01*
X154305000Y-95644801D01*
X154324301Y-95642900D01*
X154382022Y-95637215D01*
X154456084Y-95614749D01*
X154524340Y-95578265D01*
X154584166Y-95529166D01*
X154633265Y-95469340D01*
X154669749Y-95401084D01*
X154692215Y-95327022D01*
X154699801Y-95250000D01*
X154697900Y-95230699D01*
X154697900Y-89292900D01*
X156288110Y-89292900D01*
X156285441Y-89320000D01*
%TA.AperFunction,Conductor*%
D24*
G36*
X156285441Y-89320000D02*
G01*
X156285441Y-91020000D01*
X156292062Y-91087220D01*
X156311669Y-91151857D01*
X156343510Y-91211427D01*
X156386360Y-91263640D01*
X156438573Y-91306490D01*
X156498143Y-91338331D01*
X156562780Y-91357938D01*
X156630000Y-91364559D01*
X156883100Y-91364559D01*
X156883100Y-91410688D01*
X156880213Y-91440000D01*
X156883100Y-91469311D01*
X156883100Y-91469321D01*
X156891737Y-91557012D01*
X156925868Y-91669528D01*
X156981295Y-91773224D01*
X157017388Y-91817203D01*
X157055886Y-91864114D01*
X157078666Y-91882809D01*
X160847200Y-95651345D01*
X160865886Y-95674114D01*
X160888655Y-95692800D01*
X160888661Y-95692806D01*
X160951040Y-95743998D01*
X160956776Y-95748705D01*
X161060471Y-95804132D01*
X161172987Y-95838263D01*
X161260678Y-95846900D01*
X161260681Y-95846900D01*
X161290000Y-95849788D01*
X161319319Y-95846900D01*
X165470890Y-95846900D01*
X165470891Y-105380679D01*
X165468003Y-105410000D01*
X165479528Y-105527012D01*
X165513658Y-105639528D01*
X165569085Y-105743224D01*
X165624985Y-105811338D01*
X165643677Y-105834114D01*
X165666451Y-105852804D01*
X165896747Y-106083100D01*
X159961319Y-106083100D01*
X159932000Y-106080212D01*
X159902681Y-106083100D01*
X159902678Y-106083100D01*
X159814987Y-106091737D01*
X159702471Y-106125868D01*
X159598776Y-106181295D01*
X159530661Y-106237194D01*
X159530655Y-106237200D01*
X159507886Y-106255886D01*
X159489200Y-106278655D01*
X157078661Y-108689196D01*
X157055887Y-108707886D01*
X157037197Y-108730660D01*
X157037195Y-108730662D01*
X156981295Y-108798776D01*
X156925868Y-108902472D01*
X156891738Y-109014988D01*
X156880213Y-109132000D01*
X156883101Y-109161321D01*
X156883101Y-109295441D01*
X156630000Y-109295441D01*
X156562780Y-109302062D01*
X156498143Y-109321669D01*
X156438573Y-109353510D01*
X156386360Y-109396360D01*
X156343510Y-109448573D01*
X156311669Y-109508143D01*
X156292062Y-109572780D01*
X156285441Y-109640000D01*
X156285441Y-111340000D01*
X156288110Y-111367100D01*
X154697900Y-111367100D01*
X154697900Y-105429300D01*
X154699801Y-105410000D01*
X154692215Y-105332978D01*
X154669749Y-105258916D01*
X154633265Y-105190660D01*
X154584166Y-105130834D01*
X154524340Y-105081735D01*
X154456084Y-105045251D01*
X154382022Y-105022785D01*
X154324301Y-105017100D01*
X154305000Y-105015199D01*
X154285699Y-105017100D01*
X150669915Y-105017100D01*
X150786586Y-104900429D01*
X150917134Y-104705050D01*
X150956547Y-104609900D01*
X154281923Y-104609900D01*
X154305000Y-104612173D01*
X154328077Y-104609900D01*
X154397116Y-104603100D01*
X154485693Y-104576231D01*
X154567325Y-104532598D01*
X154638877Y-104473877D01*
X154653595Y-104455943D01*
X156357028Y-102752510D01*
X156922100Y-102752510D01*
X156922100Y-102987490D01*
X156967942Y-103217956D01*
X157057866Y-103435050D01*
X157188414Y-103630429D01*
X157354571Y-103796586D01*
X157549950Y-103927134D01*
X157767044Y-104017058D01*
X157997510Y-104062900D01*
X158232490Y-104062900D01*
X158462956Y-104017058D01*
X158680050Y-103927134D01*
X158875429Y-103796586D01*
X159041586Y-103630429D01*
X159172134Y-103435050D01*
X159262058Y-103217956D01*
X159307900Y-102987490D01*
X159307900Y-102752510D01*
X159262058Y-102522044D01*
X159172134Y-102304950D01*
X159148782Y-102270000D01*
X159460441Y-102270000D01*
X159460441Y-103470000D01*
X159471865Y-103585993D01*
X159505699Y-103697528D01*
X159560642Y-103800319D01*
X159634583Y-103890417D01*
X159724681Y-103964358D01*
X159827472Y-104019301D01*
X159939007Y-104053135D01*
X160055000Y-104064559D01*
X161255000Y-104064559D01*
X161370993Y-104053135D01*
X161482528Y-104019301D01*
X161585319Y-103964358D01*
X161675417Y-103890417D01*
X161749358Y-103800319D01*
X161804301Y-103697528D01*
X161838135Y-103585993D01*
X161849559Y-103470000D01*
X161849559Y-102270000D01*
X161838135Y-102154007D01*
X161804301Y-102042472D01*
X161749358Y-101939681D01*
X161675417Y-101849583D01*
X161585319Y-101775642D01*
X161482528Y-101720699D01*
X161370993Y-101686865D01*
X161255000Y-101675441D01*
X160055000Y-101675441D01*
X159939007Y-101686865D01*
X159827472Y-101720699D01*
X159724681Y-101775642D01*
X159634583Y-101849583D01*
X159560642Y-101939681D01*
X159505699Y-102042472D01*
X159471865Y-102154007D01*
X159460441Y-102270000D01*
X159148782Y-102270000D01*
X159041586Y-102109571D01*
X158875429Y-101943414D01*
X158680050Y-101812866D01*
X158462956Y-101722942D01*
X158232490Y-101677100D01*
X157997510Y-101677100D01*
X157767044Y-101722942D01*
X157549950Y-101812866D01*
X157354571Y-101943414D01*
X157188414Y-102109571D01*
X157057866Y-102304950D01*
X156967942Y-102522044D01*
X156922100Y-102752510D01*
X156357028Y-102752510D01*
X157671894Y-101437645D01*
X157767044Y-101477058D01*
X157997510Y-101522900D01*
X158232490Y-101522900D01*
X158462956Y-101477058D01*
X158680050Y-101387134D01*
X158875429Y-101256586D01*
X159041586Y-101090429D01*
X159172134Y-100895050D01*
X159262058Y-100677956D01*
X159307900Y-100447490D01*
X159307900Y-100212510D01*
X159262058Y-99982044D01*
X159172134Y-99764950D01*
X159041586Y-99569571D01*
X159001915Y-99529900D01*
X159190362Y-99529900D01*
X159547355Y-99886893D01*
X159507942Y-99982044D01*
X159462100Y-100212510D01*
X159462100Y-100447490D01*
X159507942Y-100677956D01*
X159597866Y-100895050D01*
X159728414Y-101090429D01*
X159894571Y-101256586D01*
X160089950Y-101387134D01*
X160307044Y-101477058D01*
X160537510Y-101522900D01*
X160772490Y-101522900D01*
X161002956Y-101477058D01*
X161220050Y-101387134D01*
X161415429Y-101256586D01*
X161581586Y-101090429D01*
X161712134Y-100895050D01*
X161802058Y-100677956D01*
X161847900Y-100447490D01*
X161847900Y-100212510D01*
X161802058Y-99982044D01*
X161712134Y-99764950D01*
X161581586Y-99569571D01*
X161415429Y-99403414D01*
X161220050Y-99272866D01*
X161002956Y-99182942D01*
X160772490Y-99137100D01*
X160537510Y-99137100D01*
X160307044Y-99182942D01*
X160211893Y-99222355D01*
X159733595Y-98744057D01*
X159718877Y-98726123D01*
X159647325Y-98667402D01*
X159565693Y-98623769D01*
X159477116Y-98596900D01*
X159408077Y-98590100D01*
X159385000Y-98587827D01*
X159361923Y-98590100D01*
X158933064Y-98590100D01*
X158910904Y-98567940D01*
X159092157Y-98484247D01*
X159208822Y-98280274D01*
X159283452Y-98057460D01*
X159313180Y-97824367D01*
X159296862Y-97589953D01*
X159235125Y-97363227D01*
X159130342Y-97152902D01*
X159092157Y-97095753D01*
X158910902Y-97012059D01*
X158132961Y-97790000D01*
X158147103Y-97804142D01*
X158129142Y-97822103D01*
X158115000Y-97807961D01*
X158100858Y-97822103D01*
X158082897Y-97804142D01*
X158097039Y-97790000D01*
X157319098Y-97012059D01*
X157137843Y-97095753D01*
X157021178Y-97299726D01*
X156946548Y-97522540D01*
X156916820Y-97755633D01*
X156933138Y-97990047D01*
X156994875Y-98216773D01*
X157099658Y-98427098D01*
X157137843Y-98484247D01*
X157319096Y-98567940D01*
X157296936Y-98590100D01*
X150956547Y-98590100D01*
X150917134Y-98494950D01*
X150786586Y-98299571D01*
X150620429Y-98133414D01*
X150425050Y-98002866D01*
X150207956Y-97912942D01*
X149977490Y-97867100D01*
X149742510Y-97867100D01*
X149512044Y-97912942D01*
X149294950Y-98002866D01*
X149099571Y-98133414D01*
X148982900Y-98250085D01*
X148982900Y-97711890D01*
X149010000Y-97714559D01*
X150710000Y-97714559D01*
X150777220Y-97707938D01*
X150841857Y-97688331D01*
X150901427Y-97656490D01*
X150953640Y-97613640D01*
X150996490Y-97561427D01*
X151028331Y-97501857D01*
X151047938Y-97437220D01*
X151054559Y-97370000D01*
X151054559Y-96735900D01*
X157555699Y-96735900D01*
X157477902Y-96774658D01*
X157420753Y-96812843D01*
X157337059Y-96994098D01*
X158115000Y-97772039D01*
X158892941Y-96994098D01*
X158809247Y-96812843D01*
X158674723Y-96735900D01*
X158936362Y-96735900D01*
X159547355Y-97346893D01*
X159507942Y-97442044D01*
X159462100Y-97672510D01*
X159462100Y-97907490D01*
X159507942Y-98137956D01*
X159597866Y-98355050D01*
X159728414Y-98550429D01*
X159894571Y-98716586D01*
X160089950Y-98847134D01*
X160307044Y-98937058D01*
X160537510Y-98982900D01*
X160772490Y-98982900D01*
X161002956Y-98937058D01*
X161220050Y-98847134D01*
X161415429Y-98716586D01*
X161581586Y-98550429D01*
X161712134Y-98355050D01*
X161802058Y-98137956D01*
X161847900Y-97907490D01*
X161847900Y-97672510D01*
X161802058Y-97442044D01*
X161712134Y-97224950D01*
X161581586Y-97029571D01*
X161415429Y-96863414D01*
X161220050Y-96732866D01*
X161002956Y-96642942D01*
X160772490Y-96597100D01*
X160537510Y-96597100D01*
X160307044Y-96642942D01*
X160211893Y-96682355D01*
X159479595Y-95950057D01*
X159464877Y-95932123D01*
X159393325Y-95873402D01*
X159311693Y-95829769D01*
X159223116Y-95802900D01*
X159154077Y-95796100D01*
X159131000Y-95793827D01*
X159107923Y-95796100D01*
X151054559Y-95796100D01*
X151054559Y-95670000D01*
X151051890Y-95642900D01*
X154285699Y-95642900D01*
X154305000Y-95644801D01*
X154324301Y-95642900D01*
X154382022Y-95637215D01*
X154456084Y-95614749D01*
X154524340Y-95578265D01*
X154584166Y-95529166D01*
X154633265Y-95469340D01*
X154669749Y-95401084D01*
X154692215Y-95327022D01*
X154699801Y-95250000D01*
X154697900Y-95230699D01*
X154697900Y-89292900D01*
X156288110Y-89292900D01*
X156285441Y-89320000D01*
G37*
%TD.AperFunction*%
D23*
X170422100Y-90451580D02*
X170383424Y-90393697D01*
X170210303Y-90220576D01*
X170006734Y-90084556D01*
X169780541Y-89990864D01*
X169540415Y-89943100D01*
X169295585Y-89943100D01*
X169055459Y-89990864D01*
X168829266Y-90084556D01*
X168625697Y-90220576D01*
X168452576Y-90393697D01*
X168376697Y-90507258D01*
X168377788Y-90286000D01*
X168366263Y-90168987D01*
X168332132Y-90056471D01*
X168276705Y-89952776D01*
X168202114Y-89861886D01*
X168111224Y-89787295D01*
X168007529Y-89731868D01*
X167895013Y-89697737D01*
X167778000Y-89686212D01*
X167192325Y-89689100D01*
X167043100Y-89838325D01*
X167043100Y-91020900D01*
X167063100Y-91020900D01*
X167063100Y-91351100D01*
X167043100Y-91351100D01*
X167043100Y-92533675D01*
X167192325Y-92682900D01*
X167778000Y-92685788D01*
X167895013Y-92674263D01*
X168007529Y-92640132D01*
X168111224Y-92584705D01*
X168202114Y-92510114D01*
X168276705Y-92419224D01*
X168332132Y-92315529D01*
X168366263Y-92203013D01*
X168377788Y-92086000D01*
X168376697Y-91864742D01*
X168452576Y-91978303D01*
X168625697Y-92151424D01*
X168829266Y-92287444D01*
X169055459Y-92381136D01*
X169295585Y-92428900D01*
X169540415Y-92428900D01*
X169780541Y-92381136D01*
X170006734Y-92287444D01*
X170210303Y-92151424D01*
X170383424Y-91978303D01*
X170422100Y-91920420D01*
X170422101Y-111367100D01*
X161168731Y-111367100D01*
X161311465Y-111142423D01*
X161413931Y-110877935D01*
X161308231Y-110655100D01*
X160185100Y-110655100D01*
X160185100Y-110675100D01*
X159854900Y-110675100D01*
X159854900Y-110655100D01*
X159834900Y-110655100D01*
X159834900Y-110324900D01*
X159854900Y-110324900D01*
X159854900Y-109202870D01*
X160185100Y-109202870D01*
X160185100Y-110324900D01*
X161308231Y-110324900D01*
X161413931Y-110102065D01*
X161311465Y-109837577D01*
X161159368Y-109598161D01*
X160963486Y-109393018D01*
X160731347Y-109230031D01*
X160471871Y-109115464D01*
X160407934Y-109096075D01*
X160185100Y-109202870D01*
X159854900Y-109202870D01*
X159632066Y-109096075D01*
X159568129Y-109115464D01*
X159308653Y-109230031D01*
X159076514Y-109393018D01*
X158880632Y-109598161D01*
X158728535Y-109837577D01*
X158674559Y-109976901D01*
X158674559Y-109640000D01*
X158667938Y-109572780D01*
X158648331Y-109508143D01*
X158616490Y-109448573D01*
X158573640Y-109396360D01*
X158521427Y-109353510D01*
X158461857Y-109321669D01*
X158397220Y-109302062D01*
X158330000Y-109295441D01*
X158160702Y-109295441D01*
X160179245Y-107276900D01*
X166680441Y-107276900D01*
X166680441Y-107330000D01*
X166687062Y-107397220D01*
X166706669Y-107461857D01*
X166738510Y-107521427D01*
X166781360Y-107573640D01*
X166833573Y-107616490D01*
X166871324Y-107636668D01*
X166753228Y-107699792D01*
X166556359Y-107861359D01*
X166394792Y-108058228D01*
X166274737Y-108282835D01*
X166200808Y-108526547D01*
X166175845Y-108780000D01*
X166200808Y-109033453D01*
X166274737Y-109277165D01*
X166394792Y-109501772D01*
X166556359Y-109698641D01*
X166753228Y-109860208D01*
X166977835Y-109980263D01*
X167221547Y-110054192D01*
X167411492Y-110072900D01*
X169138508Y-110072900D01*
X169328453Y-110054192D01*
X169572165Y-109980263D01*
X169796772Y-109860208D01*
X169993641Y-109698641D01*
X170155208Y-109501772D01*
X170275263Y-109277165D01*
X170349192Y-109033453D01*
X170374155Y-108780000D01*
X170349192Y-108526547D01*
X170275263Y-108282835D01*
X170155208Y-108058228D01*
X169993641Y-107861359D01*
X169796772Y-107699792D01*
X169678676Y-107636668D01*
X169716427Y-107616490D01*
X169768640Y-107573640D01*
X169811490Y-107521427D01*
X169843331Y-107461857D01*
X169862938Y-107397220D01*
X169869559Y-107330000D01*
X169869559Y-106030000D01*
X169862938Y-105962780D01*
X169843331Y-105898143D01*
X169811490Y-105838573D01*
X169768640Y-105786360D01*
X169716427Y-105743510D01*
X169656857Y-105711669D01*
X169592220Y-105692062D01*
X169525000Y-105685441D01*
X167187375Y-105685441D01*
X166664690Y-105162757D01*
X166664690Y-104680000D01*
X166677296Y-104680000D01*
X166696467Y-104874642D01*
X166753242Y-105061805D01*
X166845439Y-105234295D01*
X166969517Y-105385483D01*
X167120705Y-105509561D01*
X167293195Y-105601758D01*
X167480358Y-105658533D01*
X167626225Y-105672900D01*
X168923775Y-105672900D01*
X169069642Y-105658533D01*
X169256805Y-105601758D01*
X169429295Y-105509561D01*
X169580483Y-105385483D01*
X169704561Y-105234295D01*
X169796758Y-105061805D01*
X169853533Y-104874642D01*
X169872704Y-104680000D01*
X169853533Y-104485358D01*
X169796758Y-104298195D01*
X169704561Y-104125705D01*
X169580483Y-103974517D01*
X169429295Y-103850439D01*
X169256805Y-103758242D01*
X169069642Y-103701467D01*
X168923775Y-103687100D01*
X167626225Y-103687100D01*
X167480358Y-103701467D01*
X167293195Y-103758242D01*
X167120705Y-103850439D01*
X166969517Y-103974517D01*
X166845439Y-104125705D01*
X166753242Y-104298195D01*
X166696467Y-104485358D01*
X166677296Y-104680000D01*
X166664690Y-104680000D01*
X166664690Y-101587546D01*
X166753228Y-101660208D01*
X166977835Y-101780263D01*
X167152736Y-101833318D01*
X167120705Y-101850439D01*
X166969517Y-101974517D01*
X166845439Y-102125705D01*
X166753242Y-102298195D01*
X166696467Y-102485358D01*
X166677296Y-102680000D01*
X166696467Y-102874642D01*
X166753242Y-103061805D01*
X166845439Y-103234295D01*
X166969517Y-103385483D01*
X167120705Y-103509561D01*
X167293195Y-103601758D01*
X167480358Y-103658533D01*
X167626225Y-103672900D01*
X168923775Y-103672900D01*
X169069642Y-103658533D01*
X169256805Y-103601758D01*
X169429295Y-103509561D01*
X169580483Y-103385483D01*
X169704561Y-103234295D01*
X169796758Y-103061805D01*
X169853533Y-102874642D01*
X169872704Y-102680000D01*
X169853533Y-102485358D01*
X169796758Y-102298195D01*
X169704561Y-102125705D01*
X169580483Y-101974517D01*
X169429295Y-101850439D01*
X169397264Y-101833318D01*
X169572165Y-101780263D01*
X169796772Y-101660208D01*
X169993641Y-101498641D01*
X170155208Y-101301772D01*
X170275263Y-101077165D01*
X170349192Y-100833453D01*
X170374155Y-100580000D01*
X170349192Y-100326547D01*
X170275263Y-100082835D01*
X170155208Y-99858228D01*
X169993641Y-99661359D01*
X169796772Y-99499792D01*
X169572165Y-99379737D01*
X169328453Y-99305808D01*
X169138508Y-99287100D01*
X167411492Y-99287100D01*
X167221547Y-99305808D01*
X166977835Y-99379737D01*
X166753228Y-99499792D01*
X166664690Y-99572454D01*
X166664690Y-96254714D01*
X166674203Y-96252822D01*
X166863998Y-96174206D01*
X167034810Y-96060073D01*
X167180073Y-95914810D01*
X167294206Y-95743998D01*
X167372822Y-95554203D01*
X167412900Y-95352717D01*
X167412900Y-95147283D01*
X167867100Y-95147283D01*
X167867100Y-95352717D01*
X167907178Y-95554203D01*
X167985794Y-95743998D01*
X168099927Y-95914810D01*
X168245190Y-96060073D01*
X168416002Y-96174206D01*
X168605797Y-96252822D01*
X168807283Y-96292900D01*
X169012717Y-96292900D01*
X169214203Y-96252822D01*
X169403998Y-96174206D01*
X169574810Y-96060073D01*
X169720073Y-95914810D01*
X169834206Y-95743998D01*
X169912822Y-95554203D01*
X169952900Y-95352717D01*
X169952900Y-95147283D01*
X169912822Y-94945797D01*
X169834206Y-94756002D01*
X169720073Y-94585190D01*
X169574810Y-94439927D01*
X169403998Y-94325794D01*
X169214203Y-94247178D01*
X169012717Y-94207100D01*
X168807283Y-94207100D01*
X168605797Y-94247178D01*
X168416002Y-94325794D01*
X168245190Y-94439927D01*
X168099927Y-94585190D01*
X167985794Y-94756002D01*
X167907178Y-94945797D01*
X167867100Y-95147283D01*
X167412900Y-95147283D01*
X167372822Y-94945797D01*
X167294206Y-94756002D01*
X167180073Y-94585190D01*
X167034810Y-94439927D01*
X166863998Y-94325794D01*
X166674203Y-94247178D01*
X166472717Y-94207100D01*
X166267283Y-94207100D01*
X166065797Y-94247178D01*
X165876002Y-94325794D01*
X165705190Y-94439927D01*
X165559927Y-94585190D01*
X165514551Y-94653100D01*
X161537245Y-94653100D01*
X158970144Y-92086000D01*
X165378212Y-92086000D01*
X165389737Y-92203013D01*
X165423868Y-92315529D01*
X165479295Y-92419224D01*
X165553886Y-92510114D01*
X165644776Y-92584705D01*
X165748471Y-92640132D01*
X165860987Y-92674263D01*
X165978000Y-92685788D01*
X166563675Y-92682900D01*
X166712900Y-92533675D01*
X166712900Y-91351100D01*
X165530325Y-91351100D01*
X165381100Y-91500325D01*
X165378212Y-92086000D01*
X158970144Y-92086000D01*
X158248702Y-91364559D01*
X158330000Y-91364559D01*
X158397220Y-91357938D01*
X158461857Y-91338331D01*
X158521427Y-91306490D01*
X158573640Y-91263640D01*
X158616490Y-91211427D01*
X158648331Y-91151857D01*
X158667938Y-91087220D01*
X158674559Y-91020000D01*
X158674559Y-90683099D01*
X158728535Y-90822423D01*
X158880632Y-91061839D01*
X159076514Y-91266982D01*
X159308653Y-91429969D01*
X159568129Y-91544536D01*
X159632066Y-91563925D01*
X159854900Y-91457130D01*
X159854900Y-90335100D01*
X160185100Y-90335100D01*
X160185100Y-91457130D01*
X160407934Y-91563925D01*
X160471871Y-91544536D01*
X160731347Y-91429969D01*
X160963486Y-91266982D01*
X161159368Y-91061839D01*
X161311465Y-90822423D01*
X161413931Y-90557935D01*
X161308231Y-90335100D01*
X160185100Y-90335100D01*
X159854900Y-90335100D01*
X159834900Y-90335100D01*
X159834900Y-90286000D01*
X165378212Y-90286000D01*
X165381100Y-90871675D01*
X165530325Y-91020900D01*
X166712900Y-91020900D01*
X166712900Y-89838325D01*
X166563675Y-89689100D01*
X165978000Y-89686212D01*
X165860987Y-89697737D01*
X165748471Y-89731868D01*
X165644776Y-89787295D01*
X165553886Y-89861886D01*
X165479295Y-89952776D01*
X165423868Y-90056471D01*
X165389737Y-90168987D01*
X165378212Y-90286000D01*
X159834900Y-90286000D01*
X159834900Y-90004900D01*
X159854900Y-90004900D01*
X159854900Y-89984900D01*
X160185100Y-89984900D01*
X160185100Y-90004900D01*
X161308231Y-90004900D01*
X161413931Y-89782065D01*
X161311465Y-89517577D01*
X161168731Y-89292900D01*
X170422100Y-89292900D01*
X170422100Y-90451580D01*
%TA.AperFunction,Conductor*%
D24*
G36*
X170422100Y-90451580D02*
G01*
X170383424Y-90393697D01*
X170210303Y-90220576D01*
X170006734Y-90084556D01*
X169780541Y-89990864D01*
X169540415Y-89943100D01*
X169295585Y-89943100D01*
X169055459Y-89990864D01*
X168829266Y-90084556D01*
X168625697Y-90220576D01*
X168452576Y-90393697D01*
X168376697Y-90507258D01*
X168377788Y-90286000D01*
X168366263Y-90168987D01*
X168332132Y-90056471D01*
X168276705Y-89952776D01*
X168202114Y-89861886D01*
X168111224Y-89787295D01*
X168007529Y-89731868D01*
X167895013Y-89697737D01*
X167778000Y-89686212D01*
X167192325Y-89689100D01*
X167043100Y-89838325D01*
X167043100Y-91020900D01*
X167063100Y-91020900D01*
X167063100Y-91351100D01*
X167043100Y-91351100D01*
X167043100Y-92533675D01*
X167192325Y-92682900D01*
X167778000Y-92685788D01*
X167895013Y-92674263D01*
X168007529Y-92640132D01*
X168111224Y-92584705D01*
X168202114Y-92510114D01*
X168276705Y-92419224D01*
X168332132Y-92315529D01*
X168366263Y-92203013D01*
X168377788Y-92086000D01*
X168376697Y-91864742D01*
X168452576Y-91978303D01*
X168625697Y-92151424D01*
X168829266Y-92287444D01*
X169055459Y-92381136D01*
X169295585Y-92428900D01*
X169540415Y-92428900D01*
X169780541Y-92381136D01*
X170006734Y-92287444D01*
X170210303Y-92151424D01*
X170383424Y-91978303D01*
X170422100Y-91920420D01*
X170422101Y-111367100D01*
X161168731Y-111367100D01*
X161311465Y-111142423D01*
X161413931Y-110877935D01*
X161308231Y-110655100D01*
X160185100Y-110655100D01*
X160185100Y-110675100D01*
X159854900Y-110675100D01*
X159854900Y-110655100D01*
X159834900Y-110655100D01*
X159834900Y-110324900D01*
X159854900Y-110324900D01*
X159854900Y-109202870D01*
X160185100Y-109202870D01*
X160185100Y-110324900D01*
X161308231Y-110324900D01*
X161413931Y-110102065D01*
X161311465Y-109837577D01*
X161159368Y-109598161D01*
X160963486Y-109393018D01*
X160731347Y-109230031D01*
X160471871Y-109115464D01*
X160407934Y-109096075D01*
X160185100Y-109202870D01*
X159854900Y-109202870D01*
X159632066Y-109096075D01*
X159568129Y-109115464D01*
X159308653Y-109230031D01*
X159076514Y-109393018D01*
X158880632Y-109598161D01*
X158728535Y-109837577D01*
X158674559Y-109976901D01*
X158674559Y-109640000D01*
X158667938Y-109572780D01*
X158648331Y-109508143D01*
X158616490Y-109448573D01*
X158573640Y-109396360D01*
X158521427Y-109353510D01*
X158461857Y-109321669D01*
X158397220Y-109302062D01*
X158330000Y-109295441D01*
X158160702Y-109295441D01*
X160179245Y-107276900D01*
X166680441Y-107276900D01*
X166680441Y-107330000D01*
X166687062Y-107397220D01*
X166706669Y-107461857D01*
X166738510Y-107521427D01*
X166781360Y-107573640D01*
X166833573Y-107616490D01*
X166871324Y-107636668D01*
X166753228Y-107699792D01*
X166556359Y-107861359D01*
X166394792Y-108058228D01*
X166274737Y-108282835D01*
X166200808Y-108526547D01*
X166175845Y-108780000D01*
X166200808Y-109033453D01*
X166274737Y-109277165D01*
X166394792Y-109501772D01*
X166556359Y-109698641D01*
X166753228Y-109860208D01*
X166977835Y-109980263D01*
X167221547Y-110054192D01*
X167411492Y-110072900D01*
X169138508Y-110072900D01*
X169328453Y-110054192D01*
X169572165Y-109980263D01*
X169796772Y-109860208D01*
X169993641Y-109698641D01*
X170155208Y-109501772D01*
X170275263Y-109277165D01*
X170349192Y-109033453D01*
X170374155Y-108780000D01*
X170349192Y-108526547D01*
X170275263Y-108282835D01*
X170155208Y-108058228D01*
X169993641Y-107861359D01*
X169796772Y-107699792D01*
X169678676Y-107636668D01*
X169716427Y-107616490D01*
X169768640Y-107573640D01*
X169811490Y-107521427D01*
X169843331Y-107461857D01*
X169862938Y-107397220D01*
X169869559Y-107330000D01*
X169869559Y-106030000D01*
X169862938Y-105962780D01*
X169843331Y-105898143D01*
X169811490Y-105838573D01*
X169768640Y-105786360D01*
X169716427Y-105743510D01*
X169656857Y-105711669D01*
X169592220Y-105692062D01*
X169525000Y-105685441D01*
X167187375Y-105685441D01*
X166664690Y-105162757D01*
X166664690Y-104680000D01*
X166677296Y-104680000D01*
X166696467Y-104874642D01*
X166753242Y-105061805D01*
X166845439Y-105234295D01*
X166969517Y-105385483D01*
X167120705Y-105509561D01*
X167293195Y-105601758D01*
X167480358Y-105658533D01*
X167626225Y-105672900D01*
X168923775Y-105672900D01*
X169069642Y-105658533D01*
X169256805Y-105601758D01*
X169429295Y-105509561D01*
X169580483Y-105385483D01*
X169704561Y-105234295D01*
X169796758Y-105061805D01*
X169853533Y-104874642D01*
X169872704Y-104680000D01*
X169853533Y-104485358D01*
X169796758Y-104298195D01*
X169704561Y-104125705D01*
X169580483Y-103974517D01*
X169429295Y-103850439D01*
X169256805Y-103758242D01*
X169069642Y-103701467D01*
X168923775Y-103687100D01*
X167626225Y-103687100D01*
X167480358Y-103701467D01*
X167293195Y-103758242D01*
X167120705Y-103850439D01*
X166969517Y-103974517D01*
X166845439Y-104125705D01*
X166753242Y-104298195D01*
X166696467Y-104485358D01*
X166677296Y-104680000D01*
X166664690Y-104680000D01*
X166664690Y-101587546D01*
X166753228Y-101660208D01*
X166977835Y-101780263D01*
X167152736Y-101833318D01*
X167120705Y-101850439D01*
X166969517Y-101974517D01*
X166845439Y-102125705D01*
X166753242Y-102298195D01*
X166696467Y-102485358D01*
X166677296Y-102680000D01*
X166696467Y-102874642D01*
X166753242Y-103061805D01*
X166845439Y-103234295D01*
X166969517Y-103385483D01*
X167120705Y-103509561D01*
X167293195Y-103601758D01*
X167480358Y-103658533D01*
X167626225Y-103672900D01*
X168923775Y-103672900D01*
X169069642Y-103658533D01*
X169256805Y-103601758D01*
X169429295Y-103509561D01*
X169580483Y-103385483D01*
X169704561Y-103234295D01*
X169796758Y-103061805D01*
X169853533Y-102874642D01*
X169872704Y-102680000D01*
X169853533Y-102485358D01*
X169796758Y-102298195D01*
X169704561Y-102125705D01*
X169580483Y-101974517D01*
X169429295Y-101850439D01*
X169397264Y-101833318D01*
X169572165Y-101780263D01*
X169796772Y-101660208D01*
X169993641Y-101498641D01*
X170155208Y-101301772D01*
X170275263Y-101077165D01*
X170349192Y-100833453D01*
X170374155Y-100580000D01*
X170349192Y-100326547D01*
X170275263Y-100082835D01*
X170155208Y-99858228D01*
X169993641Y-99661359D01*
X169796772Y-99499792D01*
X169572165Y-99379737D01*
X169328453Y-99305808D01*
X169138508Y-99287100D01*
X167411492Y-99287100D01*
X167221547Y-99305808D01*
X166977835Y-99379737D01*
X166753228Y-99499792D01*
X166664690Y-99572454D01*
X166664690Y-96254714D01*
X166674203Y-96252822D01*
X166863998Y-96174206D01*
X167034810Y-96060073D01*
X167180073Y-95914810D01*
X167294206Y-95743998D01*
X167372822Y-95554203D01*
X167412900Y-95352717D01*
X167412900Y-95147283D01*
X167867100Y-95147283D01*
X167867100Y-95352717D01*
X167907178Y-95554203D01*
X167985794Y-95743998D01*
X168099927Y-95914810D01*
X168245190Y-96060073D01*
X168416002Y-96174206D01*
X168605797Y-96252822D01*
X168807283Y-96292900D01*
X169012717Y-96292900D01*
X169214203Y-96252822D01*
X169403998Y-96174206D01*
X169574810Y-96060073D01*
X169720073Y-95914810D01*
X169834206Y-95743998D01*
X169912822Y-95554203D01*
X169952900Y-95352717D01*
X169952900Y-95147283D01*
X169912822Y-94945797D01*
X169834206Y-94756002D01*
X169720073Y-94585190D01*
X169574810Y-94439927D01*
X169403998Y-94325794D01*
X169214203Y-94247178D01*
X169012717Y-94207100D01*
X168807283Y-94207100D01*
X168605797Y-94247178D01*
X168416002Y-94325794D01*
X168245190Y-94439927D01*
X168099927Y-94585190D01*
X167985794Y-94756002D01*
X167907178Y-94945797D01*
X167867100Y-95147283D01*
X167412900Y-95147283D01*
X167372822Y-94945797D01*
X167294206Y-94756002D01*
X167180073Y-94585190D01*
X167034810Y-94439927D01*
X166863998Y-94325794D01*
X166674203Y-94247178D01*
X166472717Y-94207100D01*
X166267283Y-94207100D01*
X166065797Y-94247178D01*
X165876002Y-94325794D01*
X165705190Y-94439927D01*
X165559927Y-94585190D01*
X165514551Y-94653100D01*
X161537245Y-94653100D01*
X158970144Y-92086000D01*
X165378212Y-92086000D01*
X165389737Y-92203013D01*
X165423868Y-92315529D01*
X165479295Y-92419224D01*
X165553886Y-92510114D01*
X165644776Y-92584705D01*
X165748471Y-92640132D01*
X165860987Y-92674263D01*
X165978000Y-92685788D01*
X166563675Y-92682900D01*
X166712900Y-92533675D01*
X166712900Y-91351100D01*
X165530325Y-91351100D01*
X165381100Y-91500325D01*
X165378212Y-92086000D01*
X158970144Y-92086000D01*
X158248702Y-91364559D01*
X158330000Y-91364559D01*
X158397220Y-91357938D01*
X158461857Y-91338331D01*
X158521427Y-91306490D01*
X158573640Y-91263640D01*
X158616490Y-91211427D01*
X158648331Y-91151857D01*
X158667938Y-91087220D01*
X158674559Y-91020000D01*
X158674559Y-90683099D01*
X158728535Y-90822423D01*
X158880632Y-91061839D01*
X159076514Y-91266982D01*
X159308653Y-91429969D01*
X159568129Y-91544536D01*
X159632066Y-91563925D01*
X159854900Y-91457130D01*
X159854900Y-90335100D01*
X160185100Y-90335100D01*
X160185100Y-91457130D01*
X160407934Y-91563925D01*
X160471871Y-91544536D01*
X160731347Y-91429969D01*
X160963486Y-91266982D01*
X161159368Y-91061839D01*
X161311465Y-90822423D01*
X161413931Y-90557935D01*
X161308231Y-90335100D01*
X160185100Y-90335100D01*
X159854900Y-90335100D01*
X159834900Y-90335100D01*
X159834900Y-90286000D01*
X165378212Y-90286000D01*
X165381100Y-90871675D01*
X165530325Y-91020900D01*
X166712900Y-91020900D01*
X166712900Y-89838325D01*
X166563675Y-89689100D01*
X165978000Y-89686212D01*
X165860987Y-89697737D01*
X165748471Y-89731868D01*
X165644776Y-89787295D01*
X165553886Y-89861886D01*
X165479295Y-89952776D01*
X165423868Y-90056471D01*
X165389737Y-90168987D01*
X165378212Y-90286000D01*
X159834900Y-90286000D01*
X159834900Y-90004900D01*
X159854900Y-90004900D01*
X159854900Y-89984900D01*
X160185100Y-89984900D01*
X160185100Y-90004900D01*
X161308231Y-90004900D01*
X161413931Y-89782065D01*
X161311465Y-89517577D01*
X161168731Y-89292900D01*
X170422100Y-89292900D01*
X170422100Y-90451580D01*
G37*
%TD.AperFunction*%
D23*
X157188414Y-99569571D02*
X157057866Y-99764950D01*
X156967942Y-99982044D01*
X156922100Y-100212510D01*
X156922100Y-100447490D01*
X156967942Y-100677956D01*
X157007355Y-100773106D01*
X154110362Y-103670100D01*
X150956547Y-103670100D01*
X150917134Y-103574950D01*
X150786586Y-103379571D01*
X150620429Y-103213414D01*
X150425050Y-103082866D01*
X150207956Y-102992942D01*
X149977490Y-102947100D01*
X149742510Y-102947100D01*
X149512044Y-102992942D01*
X149294950Y-103082866D01*
X149099571Y-103213414D01*
X148982900Y-103330085D01*
X148982900Y-102409915D01*
X149099571Y-102526586D01*
X149294950Y-102657134D01*
X149512044Y-102747058D01*
X149742510Y-102792900D01*
X149977490Y-102792900D01*
X150207956Y-102747058D01*
X150425050Y-102657134D01*
X150620429Y-102526586D01*
X150786586Y-102360429D01*
X150917134Y-102165050D01*
X151007058Y-101947956D01*
X151052900Y-101717490D01*
X151052900Y-101482510D01*
X151007058Y-101252044D01*
X150917134Y-101034950D01*
X150786586Y-100839571D01*
X150620429Y-100673414D01*
X150425050Y-100542866D01*
X150207956Y-100452942D01*
X149977490Y-100407100D01*
X149742510Y-100407100D01*
X149512044Y-100452942D01*
X149294950Y-100542866D01*
X149099571Y-100673414D01*
X148982900Y-100790085D01*
X148982900Y-99869915D01*
X149099571Y-99986586D01*
X149294950Y-100117134D01*
X149512044Y-100207058D01*
X149742510Y-100252900D01*
X149977490Y-100252900D01*
X150207956Y-100207058D01*
X150425050Y-100117134D01*
X150620429Y-99986586D01*
X150786586Y-99820429D01*
X150917134Y-99625050D01*
X150956547Y-99529900D01*
X157228085Y-99529900D01*
X157188414Y-99569571D01*
%TA.AperFunction,Conductor*%
D24*
G36*
X157188414Y-99569571D02*
G01*
X157057866Y-99764950D01*
X156967942Y-99982044D01*
X156922100Y-100212510D01*
X156922100Y-100447490D01*
X156967942Y-100677956D01*
X157007355Y-100773106D01*
X154110362Y-103670100D01*
X150956547Y-103670100D01*
X150917134Y-103574950D01*
X150786586Y-103379571D01*
X150620429Y-103213414D01*
X150425050Y-103082866D01*
X150207956Y-102992942D01*
X149977490Y-102947100D01*
X149742510Y-102947100D01*
X149512044Y-102992942D01*
X149294950Y-103082866D01*
X149099571Y-103213414D01*
X148982900Y-103330085D01*
X148982900Y-102409915D01*
X149099571Y-102526586D01*
X149294950Y-102657134D01*
X149512044Y-102747058D01*
X149742510Y-102792900D01*
X149977490Y-102792900D01*
X150207956Y-102747058D01*
X150425050Y-102657134D01*
X150620429Y-102526586D01*
X150786586Y-102360429D01*
X150917134Y-102165050D01*
X151007058Y-101947956D01*
X151052900Y-101717490D01*
X151052900Y-101482510D01*
X151007058Y-101252044D01*
X150917134Y-101034950D01*
X150786586Y-100839571D01*
X150620429Y-100673414D01*
X150425050Y-100542866D01*
X150207956Y-100452942D01*
X149977490Y-100407100D01*
X149742510Y-100407100D01*
X149512044Y-100452942D01*
X149294950Y-100542866D01*
X149099571Y-100673414D01*
X148982900Y-100790085D01*
X148982900Y-99869915D01*
X149099571Y-99986586D01*
X149294950Y-100117134D01*
X149512044Y-100207058D01*
X149742510Y-100252900D01*
X149977490Y-100252900D01*
X150207956Y-100207058D01*
X150425050Y-100117134D01*
X150620429Y-99986586D01*
X150786586Y-99820429D01*
X150917134Y-99625050D01*
X150956547Y-99529900D01*
X157228085Y-99529900D01*
X157188414Y-99569571D01*
G37*
%TD.AperFunction*%
%TD*%
M02*
