%TF.GenerationSoftware,KiCad,Pcbnew,(5.1.8)-1*%
%TF.CreationDate,2021-11-16T13:30:18-08:00*%
%TF.ProjectId,ISPwPower,49535077-506f-4776-9572-2e6b69636164,rev?*%
%TF.SameCoordinates,Original*%
%TF.FileFunction,Legend,Top*%
%TF.FilePolarity,Positive*%
%FSLAX46Y46*%
G04 Gerber Fmt 4.6, Leading zero omitted, Abs format (unit mm)*
G04 Created by KiCad (PCBNEW (5.1.8)-1) date 2021-11-16 13:30:18*
%MOMM*%
%LPD*%
G01*
G04 APERTURE LIST*
%ADD10C,0.150000*%
%ADD11C,0.152400*%
%ADD12C,0.203200*%
%ADD13C,0.120000*%
G04 APERTURE END LIST*
D10*
X167313428Y-97418071D02*
X167531142Y-97418071D01*
X167640000Y-97472500D01*
X167748857Y-97581357D01*
X167803285Y-97799071D01*
X167803285Y-98180071D01*
X167748857Y-98397785D01*
X167640000Y-98506642D01*
X167531142Y-98561071D01*
X167313428Y-98561071D01*
X167204571Y-98506642D01*
X167095714Y-98397785D01*
X167041285Y-98180071D01*
X167041285Y-97799071D01*
X167095714Y-97581357D01*
X167204571Y-97472500D01*
X167313428Y-97418071D01*
X168674142Y-97962357D02*
X168293142Y-97962357D01*
X168293142Y-98561071D02*
X168293142Y-97418071D01*
X168837428Y-97418071D01*
X169653857Y-97962357D02*
X169272857Y-97962357D01*
X169272857Y-98561071D02*
X169272857Y-97418071D01*
X169817142Y-97418071D01*
D11*
X167694428Y-110372071D02*
X167912142Y-110372071D01*
X168021000Y-110426500D01*
X168129857Y-110535357D01*
X168184285Y-110753071D01*
X168184285Y-111134071D01*
X168129857Y-111351785D01*
X168021000Y-111460642D01*
X167912142Y-111515071D01*
X167694428Y-111515071D01*
X167585571Y-111460642D01*
X167476714Y-111351785D01*
X167422285Y-111134071D01*
X167422285Y-110753071D01*
X167476714Y-110535357D01*
X167585571Y-110426500D01*
X167694428Y-110372071D01*
X168674142Y-111515071D02*
X168674142Y-110372071D01*
X169327285Y-111515071D01*
X169327285Y-110372071D01*
D12*
X161784937Y-110598857D02*
X162946080Y-110598857D01*
X154553920Y-110598857D02*
X155715062Y-110598857D01*
X155134491Y-111179428D02*
X155134491Y-110018285D01*
X161784937Y-90278857D02*
X162946080Y-90278857D01*
X154553920Y-90278857D02*
X155715062Y-90278857D01*
X155134491Y-90859428D02*
X155134491Y-89698285D01*
D10*
X151465595Y-104592380D02*
X151465595Y-103592380D01*
X151798928Y-104306666D01*
X152132261Y-103592380D01*
X152132261Y-104592380D01*
X152798928Y-103592380D02*
X152989404Y-103592380D01*
X153084642Y-103640000D01*
X153179880Y-103735238D01*
X153227500Y-103925714D01*
X153227500Y-104259047D01*
X153179880Y-104449523D01*
X153084642Y-104544761D01*
X152989404Y-104592380D01*
X152798928Y-104592380D01*
X152703690Y-104544761D01*
X152608452Y-104449523D01*
X152560833Y-104259047D01*
X152560833Y-103925714D01*
X152608452Y-103735238D01*
X152703690Y-103640000D01*
X152798928Y-103592380D01*
X153608452Y-104544761D02*
X153751309Y-104592380D01*
X153989404Y-104592380D01*
X154084642Y-104544761D01*
X154132261Y-104497142D01*
X154179880Y-104401904D01*
X154179880Y-104306666D01*
X154132261Y-104211428D01*
X154084642Y-104163809D01*
X153989404Y-104116190D01*
X153798928Y-104068571D01*
X153703690Y-104020952D01*
X153656071Y-103973333D01*
X153608452Y-103878095D01*
X153608452Y-103782857D01*
X153656071Y-103687619D01*
X153703690Y-103640000D01*
X153798928Y-103592380D01*
X154037023Y-103592380D01*
X154179880Y-103640000D01*
X154608452Y-104592380D02*
X154608452Y-103592380D01*
X151465595Y-102052380D02*
X151465595Y-101052380D01*
X151798928Y-101766666D01*
X152132261Y-101052380D01*
X152132261Y-102052380D01*
X152608452Y-102052380D02*
X152608452Y-101052380D01*
X153037023Y-102004761D02*
X153179880Y-102052380D01*
X153417976Y-102052380D01*
X153513214Y-102004761D01*
X153560833Y-101957142D01*
X153608452Y-101861904D01*
X153608452Y-101766666D01*
X153560833Y-101671428D01*
X153513214Y-101623809D01*
X153417976Y-101576190D01*
X153227500Y-101528571D01*
X153132261Y-101480952D01*
X153084642Y-101433333D01*
X153037023Y-101338095D01*
X153037023Y-101242857D01*
X153084642Y-101147619D01*
X153132261Y-101100000D01*
X153227500Y-101052380D01*
X153465595Y-101052380D01*
X153608452Y-101100000D01*
X154227500Y-101052380D02*
X154417976Y-101052380D01*
X154513214Y-101100000D01*
X154608452Y-101195238D01*
X154656071Y-101385714D01*
X154656071Y-101719047D01*
X154608452Y-101909523D01*
X154513214Y-102004761D01*
X154417976Y-102052380D01*
X154227500Y-102052380D01*
X154132261Y-102004761D01*
X154037023Y-101909523D01*
X153989404Y-101719047D01*
X153989404Y-101385714D01*
X154037023Y-101195238D01*
X154132261Y-101100000D01*
X154227500Y-101052380D01*
X151417976Y-99464761D02*
X151560833Y-99512380D01*
X151798928Y-99512380D01*
X151894166Y-99464761D01*
X151941785Y-99417142D01*
X151989404Y-99321904D01*
X151989404Y-99226666D01*
X151941785Y-99131428D01*
X151894166Y-99083809D01*
X151798928Y-99036190D01*
X151608452Y-98988571D01*
X151513214Y-98940952D01*
X151465595Y-98893333D01*
X151417976Y-98798095D01*
X151417976Y-98702857D01*
X151465595Y-98607619D01*
X151513214Y-98560000D01*
X151608452Y-98512380D01*
X151846547Y-98512380D01*
X151989404Y-98560000D01*
X152989404Y-99417142D02*
X152941785Y-99464761D01*
X152798928Y-99512380D01*
X152703690Y-99512380D01*
X152560833Y-99464761D01*
X152465595Y-99369523D01*
X152417976Y-99274285D01*
X152370357Y-99083809D01*
X152370357Y-98940952D01*
X152417976Y-98750476D01*
X152465595Y-98655238D01*
X152560833Y-98560000D01*
X152703690Y-98512380D01*
X152798928Y-98512380D01*
X152941785Y-98560000D01*
X152989404Y-98607619D01*
X153417976Y-99512380D02*
X153417976Y-98512380D01*
X153989404Y-99512380D02*
X153560833Y-98940952D01*
X153989404Y-98512380D02*
X153417976Y-99083809D01*
X152037023Y-96972380D02*
X151703690Y-96496190D01*
X151465595Y-96972380D02*
X151465595Y-95972380D01*
X151846547Y-95972380D01*
X151941785Y-96020000D01*
X151989404Y-96067619D01*
X152037023Y-96162857D01*
X152037023Y-96305714D01*
X151989404Y-96400952D01*
X151941785Y-96448571D01*
X151846547Y-96496190D01*
X151465595Y-96496190D01*
X152465595Y-96448571D02*
X152798928Y-96448571D01*
X152941785Y-96972380D02*
X152465595Y-96972380D01*
X152465595Y-95972380D01*
X152941785Y-95972380D01*
X153322738Y-96924761D02*
X153465595Y-96972380D01*
X153703690Y-96972380D01*
X153798928Y-96924761D01*
X153846547Y-96877142D01*
X153894166Y-96781904D01*
X153894166Y-96686666D01*
X153846547Y-96591428D01*
X153798928Y-96543809D01*
X153703690Y-96496190D01*
X153513214Y-96448571D01*
X153417976Y-96400952D01*
X153370357Y-96353333D01*
X153322738Y-96258095D01*
X153322738Y-96162857D01*
X153370357Y-96067619D01*
X153417976Y-96020000D01*
X153513214Y-95972380D01*
X153751309Y-95972380D01*
X153894166Y-96020000D01*
D13*
%TO.C,R1*%
X167290000Y-95250000D02*
G75*
G03*
X167290000Y-95250000I-920000J0D01*
G01*
X167290000Y-95250000D02*
X167910000Y-95250000D01*
%TO.C,D1*%
X165608000Y-89916000D02*
X165608000Y-92456000D01*
X166588000Y-92266000D02*
X166588000Y-92422000D01*
X166588000Y-89950000D02*
X166588000Y-90106000D01*
X169820335Y-90107392D02*
G75*
G03*
X166588000Y-89950484I-1672335J-1078608D01*
G01*
X169820335Y-92264608D02*
G75*
G02*
X166588000Y-92421516I-1672335J1078608D01*
G01*
%TO.C,J1*%
X165335000Y-102370000D02*
X164335000Y-102870000D01*
X165335000Y-103370000D02*
X165335000Y-102370000D01*
X164335000Y-102870000D02*
X165335000Y-103370000D01*
X162635000Y-98280000D02*
X163945000Y-98280000D01*
X162635000Y-98280000D02*
X162635000Y-98280000D01*
X162635000Y-93880000D02*
X162635000Y-98280000D01*
X156135000Y-93880000D02*
X162635000Y-93880000D01*
X156135000Y-106780000D02*
X156135000Y-93880000D01*
X162635000Y-106780000D02*
X156135000Y-106780000D01*
X162635000Y-102380000D02*
X162635000Y-106780000D01*
X163945000Y-102380000D02*
X162635000Y-102380000D01*
X163945000Y-92580000D02*
X163945000Y-108080000D01*
X154825000Y-92580000D02*
X163945000Y-92580000D01*
X154825000Y-108080000D02*
X154825000Y-92580000D01*
X163945000Y-108080000D02*
X154825000Y-108080000D01*
D10*
%TO.C,SW1*%
X165975000Y-108980000D02*
X165975000Y-100380000D01*
X170575000Y-108980000D02*
X170575000Y-106780000D01*
X170575000Y-102680000D02*
X170575000Y-100380000D01*
%TO.C,R1*%
X165187333Y-94178380D02*
X164854000Y-93702190D01*
X164615904Y-94178380D02*
X164615904Y-93178380D01*
X164996857Y-93178380D01*
X165092095Y-93226000D01*
X165139714Y-93273619D01*
X165187333Y-93368857D01*
X165187333Y-93511714D01*
X165139714Y-93606952D01*
X165092095Y-93654571D01*
X164996857Y-93702190D01*
X164615904Y-93702190D01*
X166139714Y-94178380D02*
X165568285Y-94178380D01*
X165854000Y-94178380D02*
X165854000Y-93178380D01*
X165758761Y-93321238D01*
X165663523Y-93416476D01*
X165568285Y-93464095D01*
%TO.C,D1*%
X163911595Y-90495380D02*
X163911595Y-89495380D01*
X164149690Y-89495380D01*
X164292547Y-89543000D01*
X164387785Y-89638238D01*
X164435404Y-89733476D01*
X164483023Y-89923952D01*
X164483023Y-90066809D01*
X164435404Y-90257285D01*
X164387785Y-90352523D01*
X164292547Y-90447761D01*
X164149690Y-90495380D01*
X163911595Y-90495380D01*
X165435404Y-90495380D02*
X164863976Y-90495380D01*
X165149690Y-90495380D02*
X165149690Y-89495380D01*
X165054452Y-89638238D01*
X164959214Y-89733476D01*
X164863976Y-89781095D01*
%TO.C,J1*%
X162546309Y-108672380D02*
X162546309Y-109386666D01*
X162498690Y-109529523D01*
X162403452Y-109624761D01*
X162260595Y-109672380D01*
X162165357Y-109672380D01*
X163546309Y-109672380D02*
X162974880Y-109672380D01*
X163260595Y-109672380D02*
X163260595Y-108672380D01*
X163165357Y-108815238D01*
X163070119Y-108910476D01*
X162974880Y-108958095D01*
%TO.C,SW1*%
X165504761Y-109029333D02*
X165552380Y-108886476D01*
X165552380Y-108648380D01*
X165504761Y-108553142D01*
X165457142Y-108505523D01*
X165361904Y-108457904D01*
X165266666Y-108457904D01*
X165171428Y-108505523D01*
X165123809Y-108553142D01*
X165076190Y-108648380D01*
X165028571Y-108838857D01*
X164980952Y-108934095D01*
X164933333Y-108981714D01*
X164838095Y-109029333D01*
X164742857Y-109029333D01*
X164647619Y-108981714D01*
X164600000Y-108934095D01*
X164552380Y-108838857D01*
X164552380Y-108600761D01*
X164600000Y-108457904D01*
X164552380Y-108124571D02*
X165552380Y-107886476D01*
X164838095Y-107696000D01*
X165552380Y-107505523D01*
X164552380Y-107267428D01*
X165552380Y-106362666D02*
X165552380Y-106934095D01*
X165552380Y-106648380D02*
X164552380Y-106648380D01*
X164695238Y-106743619D01*
X164790476Y-106838857D01*
X164838095Y-106934095D01*
%TD*%
M02*
